<?xml version="1.0" encoding="UTF-8"?>
<svg xmlns="http://www.w3.org/2000/svg" xmlns:xlink="http://www.w3.org/1999/xlink" width="80px" height="80px" viewBox="0 0 80 80" version="1.1">
<defs>
<clipPath id="clip1">
  <path d="M 5.667969 5.453125 L 74.308594 5.453125 L 74.308594 74.570312 L 5.667969 74.570312 Z M 5.667969 5.453125 "/>
</clipPath>
</defs>
<g id="surface1">
<path style=" stroke:none;fill-rule:evenodd;fill:rgb(10.980392%,10.980392%,10.980392%);fill-opacity:1;" d="M 17.179688 39.714844 C 18.914062 39.714844 20.324219 41.125 20.324219 42.859375 C 20.324219 44.597656 18.914062 46.011719 17.179688 46.011719 C 15.441406 46.011719 14.03125 44.597656 14.03125 42.859375 C 14.03125 41.125 15.441406 39.714844 17.179688 39.714844 Z M 55.414062 19.15625 L 61.371094 24.402344 L 55.414062 29.136719 Z M 66.695312 24.402344 L 72.652344 19.15625 L 72.652344 29.136719 Z M 47.621094 29.03125 C 47.117188 28.238281 47.121094 27.257812 47.632812 26.46875 L 49.152344 24.125 C 49.378906 23.773438 49.421875 23.386719 49.273438 22.992188 L 46.660156 16.03125 C 46.527344 15.671875 46.246094 15.390625 45.878906 15.273438 C 45.75 15.230469 45.617188 15.207031 45.480469 15.207031 C 45.234375 15.207031 45.003906 15.277344 44.796875 15.410156 L 41.152344 17.738281 C 39.683594 18.675781 39.011719 20.332031 39.417969 22.03125 C 40.796875 27.796875 43.816406 33.007812 48.003906 37.195312 C 52.191406 41.386719 57.402344 44.414062 63.175781 45.789062 C 64.871094 46.195312 66.527344 45.523438 67.46875 44.054688 L 69.800781 40.410156 C 70.007812 40.085938 70.058594 39.691406 69.9375 39.328125 C 69.816406 38.964844 69.539062 38.679688 69.179688 38.546875 L 62.214844 35.933594 C 61.824219 35.785156 61.4375 35.828125 61.085938 36.058594 L 58.738281 37.574219 C 57.949219 38.085938 56.972656 38.09375 56.175781 37.589844 C 54.457031 36.5 52.863281 35.21875 51.425781 33.78125 C 49.988281 32.34375 48.707031 30.75 47.621094 29.03125 Z M 33.316406 10.320312 L 32.28125 7.136719 L 51.328125 7.136719 L 50.292969 10.320312 Z M 44.34375 65.382812 C 45.085938 65.382812 45.6875 65.984375 45.6875 66.726562 C 45.6875 67.464844 45.085938 68.070312 44.34375 68.070312 L 39.265625 68.070312 C 38.523438 68.070312 37.921875 67.464844 37.921875 66.726562 C 37.921875 65.984375 38.523438 65.382812 39.265625 65.382812 Z M 44.34375 65.382812 "/>
<g clip-path="url(#clip1)" clip-rule="nonzero">
<path style=" stroke:none;fill-rule:evenodd;fill:rgb(100%,87.058824%,34.901962%);fill-opacity:1;" d="M 58.957031 35.441406 L 57.832031 36.171875 C 57.585938 36.332031 57.316406 36.332031 57.066406 36.175781 C 55.460938 35.160156 53.960938 33.957031 52.609375 32.601562 C 52.605469 32.601562 52.605469 32.601562 52.605469 32.601562 C 51.25 31.25 50.046875 29.746094 49.03125 28.140625 C 48.875 27.894531 48.875 27.621094 49.035156 27.378906 L 50.554688 25.03125 C 51.074219 24.230469 51.175781 23.296875 50.839844 22.40625 L 48.226562 15.445312 C 47.914062 14.609375 47.25 13.96875 46.40625 13.6875 C 45.566406 13.40625 44.652344 13.523438 43.898438 14 L 40.253906 16.328125 C 38.191406 17.648438 37.226562 20.039062 37.792969 22.421875 C 39.230469 28.4375 42.355469 33.957031 46.824219 38.378906 C 50.292969 41.886719 54.433594 44.5625 58.957031 46.25 L 58.957031 70.5 C 58.957031 71.480469 58.160156 72.28125 57.175781 72.28125 L 26.429688 72.28125 C 25.449219 72.28125 24.652344 71.480469 24.652344 70.5 L 24.652344 59.558594 L 39.050781 59.558594 C 40.347656 59.558594 41.40625 58.5 41.40625 57.203125 L 41.40625 35.054688 C 41.40625 33.757812 40.347656 32.703125 39.050781 32.703125 L 24.652344 32.703125 L 24.652344 9.472656 C 24.652344 8.488281 25.449219 7.691406 26.433594 7.691406 L 30.707031 7.691406 L 31.851562 11.222656 C 32 11.679688 32.429688 11.992188 32.910156 11.992188 L 50.699219 11.992188 C 51.179688 11.992188 51.605469 11.679688 51.757812 11.222656 L 52.902344 7.691406 L 57.175781 7.691406 C 58.160156 7.691406 58.957031 8.488281 58.957031 9.472656 L 58.957031 16.8125 L 56.015625 16.8125 C 54.765625 16.8125 53.746094 17.828125 53.746094 19.078125 L 53.746094 29.132812 C 53.746094 30.382812 54.765625 31.402344 56.015625 31.402344 L 58.957031 31.402344 Z M 62.019531 36.453125 C 61.792969 36.371094 61.589844 36.390625 61.386719 36.523438 L 59.042969 38.042969 C 58.070312 38.671875 56.859375 38.679688 55.878906 38.058594 C 54.132812 36.953125 52.503906 35.648438 51.03125 34.175781 C 49.558594 32.707031 48.253906 31.074219 47.148438 29.332031 C 46.53125 28.351562 46.539062 27.140625 47.167969 26.167969 L 48.683594 23.824219 C 48.816406 23.617188 48.839844 23.417969 48.753906 23.1875 L 46.140625 16.226562 C 46.035156 15.949219 45.820312 15.839844 45.703125 15.800781 C 45.652344 15.78125 45.574219 15.765625 45.480469 15.765625 C 45.367188 15.765625 45.238281 15.789062 45.097656 15.878906 L 41.453125 18.207031 C 40.183594 19.019531 39.609375 20.4375 39.960938 21.902344 C 41.300781 27.515625 44.214844 32.667969 48.398438 36.804688 C 52.539062 40.992188 57.695312 43.910156 63.304688 45.25 C 64.773438 45.597656 66.191406 45.027344 67 43.753906 L 69.332031 40.109375 C 69.488281 39.859375 69.449219 39.625 69.410156 39.503906 C 69.371094 39.386719 69.261719 39.171875 68.984375 39.066406 Z M 7.898438 57.203125 C 7.898438 57.269531 7.957031 57.328125 8.023438 57.328125 L 39.050781 57.328125 C 39.121094 57.328125 39.175781 57.269531 39.175781 57.203125 L 39.175781 35.054688 C 39.175781 34.988281 39.121094 34.929688 39.050781 34.929688 L 8.023438 34.929688 C 7.957031 34.929688 7.898438 34.988281 7.898438 35.054688 Z M 50.5625 7.691406 L 33.046875 7.691406 L 33.722656 9.761719 L 49.886719 9.761719 Z M 67.5625 24.378906 L 72.097656 20.390625 L 72.097656 27.980469 Z M 62.199219 25.875 L 58.050781 29.175781 L 70.019531 29.175781 L 65.863281 25.875 L 64.769531 26.839844 C 64.558594 27.027344 64.296875 27.117188 64.035156 27.117188 C 63.769531 27.117188 63.507812 27.027344 63.296875 26.839844 Z M 60.503906 24.378906 L 55.972656 20.390625 L 55.972656 27.980469 Z M 64.035156 24.519531 L 70.261719 19.039062 L 57.808594 19.039062 Z M 72.050781 16.8125 L 61.1875 16.8125 L 61.1875 9.472656 C 61.1875 7.261719 59.386719 5.464844 57.175781 5.464844 L 26.429688 5.464844 C 24.222656 5.464844 22.421875 7.261719 22.421875 9.472656 L 22.421875 32.703125 L 8.023438 32.703125 C 6.726562 32.703125 5.671875 33.757812 5.671875 35.054688 L 5.671875 57.203125 C 5.671875 58.5 6.726562 59.558594 8.023438 59.558594 L 22.421875 59.558594 L 22.421875 70.5 C 22.421875 72.710938 24.222656 74.507812 26.429688 74.507812 L 57.175781 74.507812 C 59.386719 74.507812 61.1875 72.710938 61.1875 70.5 L 61.1875 46.988281 C 61.714844 47.144531 62.25 47.289062 62.789062 47.414062 C 63.242188 47.523438 63.695312 47.574219 64.140625 47.574219 C 66.042969 47.574219 67.8125 46.625 68.878906 44.953125 L 71.203125 41.308594 C 71.691406 40.558594 71.800781 39.640625 71.519531 38.800781 C 71.246094 37.957031 70.601562 37.296875 69.761719 36.984375 L 62.800781 34.371094 C 62.265625 34.167969 61.714844 34.125 61.1875 34.234375 L 61.1875 31.402344 L 72.050781 31.402344 C 73.300781 31.402344 74.316406 30.382812 74.316406 29.132812 L 74.316406 19.078125 C 74.316406 17.828125 73.300781 16.8125 72.050781 16.8125 Z M 37.328125 41.175781 C 37.328125 40.5625 36.828125 40.0625 36.214844 40.0625 L 28.425781 40.0625 C 27.808594 40.0625 27.3125 40.5625 27.3125 41.175781 C 27.3125 41.792969 27.808594 42.289062 28.425781 42.289062 L 36.214844 42.289062 C 36.828125 42.289062 37.328125 41.792969 37.328125 41.175781 Z M 37.328125 51.082031 C 37.328125 50.46875 36.828125 49.96875 36.214844 49.96875 L 28.425781 49.96875 C 27.808594 49.96875 27.3125 50.46875 27.3125 51.082031 C 27.3125 51.699219 27.808594 52.195312 28.425781 52.195312 L 36.214844 52.195312 C 36.828125 52.195312 37.328125 51.699219 37.328125 51.082031 Z M 37.328125 46.128906 C 37.328125 45.515625 36.828125 45.015625 36.214844 45.015625 L 28.425781 45.015625 C 27.808594 45.015625 27.3125 45.515625 27.3125 46.128906 C 27.3125 46.746094 27.808594 47.246094 28.425781 47.246094 L 36.214844 47.246094 C 36.828125 47.246094 37.328125 46.746094 37.328125 46.128906 Z M 11.257812 51.992188 C 12.0625 49.460938 14.425781 47.679688 17.175781 47.679688 C 19.933594 47.679688 22.289062 49.460938 23.097656 51.992188 Z M 17.179688 40.269531 C 18.605469 40.269531 19.769531 41.433594 19.769531 42.859375 C 19.769531 44.289062 18.605469 45.453125 17.179688 45.453125 C 15.75 45.453125 14.585938 44.289062 14.585938 42.859375 C 14.585938 41.433594 15.75 40.269531 17.179688 40.269531 Z M 20.652344 46.195312 C 21.484375 45.328125 21.996094 44.152344 21.996094 42.859375 C 21.996094 40.203125 19.835938 38.042969 17.179688 38.042969 C 14.519531 38.042969 12.359375 40.203125 12.359375 42.859375 C 12.359375 44.152344 12.871094 45.328125 13.703125 46.195312 C 11.050781 47.390625 9.113281 49.917969 8.785156 52.988281 C 8.75 53.300781 8.851562 53.613281 9.0625 53.847656 C 9.273438 54.085938 9.578125 54.21875 9.890625 54.21875 L 24.464844 54.21875 C 24.777344 54.21875 25.078125 54.085938 25.289062 53.847656 C 25.503906 53.613281 25.605469 53.300781 25.570312 52.988281 C 25.242188 49.917969 23.304688 47.390625 20.652344 46.195312 Z M 45.132812 66.726562 C 45.132812 66.292969 44.777344 65.9375 44.34375 65.9375 L 39.265625 65.9375 C 38.832031 65.9375 38.476562 66.292969 38.476562 66.726562 C 38.476562 67.160156 38.832031 67.511719 39.265625 67.511719 L 44.34375 67.511719 C 44.777344 67.511719 45.132812 67.160156 45.132812 66.726562 Z M 36.25 66.726562 C 36.25 68.386719 37.601562 69.742188 39.265625 69.742188 L 44.34375 69.742188 C 46.007812 69.742188 47.359375 68.386719 47.359375 66.726562 C 47.359375 65.0625 46.007812 63.710938 44.34375 63.710938 L 39.265625 63.710938 C 37.601562 63.710938 36.25 65.0625 36.25 66.726562 Z M 36.25 66.726562 "/>
</g>
</g>
</svg>
