<svg xmlns="http://www.w3.org/2000/svg" xmlns:xlink="http://www.w3.org/1999/xlink" width="500" zoomAndPan="magnify" viewBox="0 0 375 374.999991" height="500" preserveAspectRatio="xMidYMid meet" version="1.2"><defs><clipPath id="ef1a0a504b"><path d="M 43.617188 75 L 331.617188 75 L 331.617188 281 L 43.617188 281 Z M 43.617188 75 "/></clipPath><clipPath id="e454f1f5f2"><path d="M 127 307 L 247 307 L 247 349.898438 L 127 349.898438 Z M 127 307 "/></clipPath><clipPath id="b30d16fc1f"><path d="M 43.617188 235 L 331 235 L 331 244 L 43.617188 244 Z M 43.617188 235 "/></clipPath><clipPath id="7fb980c015"><path d="M 94 25.148438 L 281 25.148438 L 281 212 L 94 212 Z M 94 25.148438 "/></clipPath></defs><g id="29ff3d8de5"><g clip-rule="nonzero" clip-path="url(#ef1a0a504b)"><path style=" stroke:none;fill-rule:evenodd;fill:#ffde59;fill-opacity:1;" d="M 315.003906 280.050781 L 59.613281 280.050781 C 50.664062 280.050781 43.617188 272.816406 43.617188 263.863281 L 43.617188 91.890625 C 43.617188 82.9375 50.664062 75.703125 59.613281 75.703125 L 107.035156 75.703125 C 109.128906 75.703125 110.652344 77.417969 110.652344 79.511719 C 110.652344 81.605469 109.128906 83.128906 107.035156 83.128906 L 59.613281 83.128906 C 54.851562 83.128906 51.234375 86.9375 51.234375 91.699219 L 51.234375 263.671875 C 51.234375 268.433594 54.851562 272.054688 59.613281 272.054688 L 315.003906 272.054688 C 319.765625 272.054688 323.382812 268.433594 323.382812 263.671875 L 323.382812 91.890625 C 323.382812 87.128906 319.765625 83.511719 315.003906 83.511719 L 267.964844 83.511719 C 265.867188 83.511719 264.152344 81.796875 264.152344 79.703125 C 264.152344 77.605469 265.867188 76.082031 267.964844 76.082031 L 315.195312 76.082031 C 324.144531 76.082031 331.382812 83.128906 331.382812 92.082031 L 331.382812 264.246094 C 331 273.003906 323.953125 280.050781 315.003906 280.050781 Z M 315.003906 280.050781 "/></g><path style=" stroke:none;fill-rule:evenodd;fill:#ffde59;fill-opacity:1;" d="M 205.878906 332.425781 L 168.929688 332.425781 C 166.644531 332.425781 165.121094 330.710938 165.121094 328.617188 L 165.121094 276.433594 C 165.121094 274.148438 166.644531 272.625 168.929688 272.625 C 171.023438 272.625 172.550781 274.148438 172.550781 276.433594 L 172.550781 324.996094 L 201.878906 324.996094 L 201.878906 276.433594 C 201.878906 274.148438 203.402344 272.625 205.496094 272.625 C 207.589844 272.625 209.304688 274.148438 209.304688 276.433594 L 209.304688 328.617188 C 209.496094 330.710938 207.972656 332.425781 205.878906 332.425781 Z M 205.878906 332.425781 "/><g clip-rule="nonzero" clip-path="url(#e454f1f5f2)"><path style=" stroke:none;fill-rule:evenodd;fill:#ffde59;fill-opacity:1;" d="M 243.015625 349.753906 L 131.601562 349.753906 C 130.269531 349.753906 129.128906 349.183594 128.363281 348.230469 C 127.601562 347.089844 127.601562 345.757812 127.792969 344.804688 L 141.695312 309.953125 C 142.078125 308.238281 143.410156 307.476562 145.125 307.476562 L 168.929688 307.476562 C 171.023438 307.476562 172.550781 309.191406 172.550781 311.285156 C 172.550781 313.378906 171.023438 314.902344 168.929688 314.902344 L 147.789062 314.902344 L 137.125 342.328125 L 237.492188 342.328125 L 226.636719 315.285156 L 205.496094 315.285156 C 203.402344 315.285156 201.878906 313.570312 201.878906 311.476562 C 201.878906 309.378906 203.402344 307.855469 205.496094 307.855469 L 229.300781 307.855469 C 231.015625 307.855469 232.347656 308.808594 232.730469 310.140625 L 246.441406 344.996094 C 247.015625 346.136719 246.824219 347.46875 246.0625 348.421875 C 245.488281 349.183594 244.347656 349.753906 243.015625 349.753906 Z M 243.015625 349.753906 "/></g><g clip-rule="nonzero" clip-path="url(#b30d16fc1f)"><path style=" stroke:none;fill-rule:evenodd;fill:#ffde59;fill-opacity:1;" d="M 327.382812 243.296875 L 47.234375 243.296875 C 45.140625 243.296875 43.617188 241.773438 43.617188 239.675781 C 43.617188 237.582031 45.140625 235.867188 47.234375 235.867188 L 327.382812 235.867188 C 329.476562 235.867188 331 237.582031 331 239.675781 C 331 241.773438 329.476562 243.296875 327.382812 243.296875 Z M 327.382812 243.296875 "/></g><path style=" stroke:none;fill-rule:evenodd;fill:#ffde59;fill-opacity:1;" d="M 74.847656 261.578125 L 65.519531 261.578125 C 63.421875 261.578125 61.898438 260.054688 61.898438 257.769531 C 61.898438 255.675781 63.421875 254.152344 65.519531 254.152344 L 74.847656 254.152344 C 76.945312 254.152344 78.46875 255.675781 78.46875 257.769531 C 78.46875 260.054688 76.945312 261.578125 74.847656 261.578125 Z M 74.847656 261.578125 "/><path style=" stroke:none;fill-rule:evenodd;fill:#ffde59;fill-opacity:1;" d="M 98.273438 261.578125 L 88.941406 261.578125 C 86.847656 261.578125 85.324219 260.054688 85.324219 257.769531 C 85.324219 255.675781 86.847656 254.152344 88.941406 254.152344 L 98.273438 254.152344 C 100.371094 254.152344 101.894531 255.675781 101.894531 257.769531 C 101.894531 260.054688 100.371094 261.578125 98.273438 261.578125 Z M 98.273438 261.578125 "/><path style=" stroke:none;fill-rule:evenodd;fill:#ffde59;fill-opacity:1;" d="M 121.507812 261.578125 L 112.367188 261.578125 C 110.082031 261.578125 108.558594 260.054688 108.558594 257.769531 C 108.558594 255.675781 110.082031 254.152344 112.367188 254.152344 L 121.507812 254.152344 C 123.605469 254.152344 125.316406 255.675781 125.316406 257.769531 C 125.316406 260.054688 123.605469 261.578125 121.507812 261.578125 Z M 121.507812 261.578125 "/><path style=" stroke:none;fill-rule:evenodd;fill:#ffde59;fill-opacity:1;" d="M 144.742188 261.578125 L 135.601562 261.578125 C 133.507812 261.578125 131.792969 260.054688 131.792969 257.769531 C 131.792969 255.675781 133.507812 254.152344 135.601562 254.152344 L 144.742188 254.152344 C 146.839844 254.152344 148.550781 255.675781 148.550781 257.769531 C 148.550781 260.054688 146.839844 261.578125 144.742188 261.578125 Z M 144.742188 261.578125 "/><path style=" stroke:none;fill-rule:evenodd;fill:#ffde59;fill-opacity:1;" d="M 205.878906 332.425781 C 204.542969 332.425781 203.402344 331.851562 202.640625 330.710938 L 165.882812 278.527344 C 164.550781 276.625 165.121094 274.527344 167.027344 273.195312 C 168.929688 271.863281 171.023438 272.433594 172.359375 273.957031 L 208.925781 326.332031 C 210.257812 328.042969 209.875 330.328125 208.164062 331.664062 C 207.210938 332.042969 206.640625 332.425781 205.878906 332.425781 Z M 205.878906 332.425781 "/><g clip-rule="nonzero" clip-path="url(#7fb980c015)"><path style=" stroke:none;fill-rule:evenodd;fill:#ffde59;fill-opacity:1;" d="M 187.402344 211.300781 C 135.984375 211.300781 94.273438 169.59375 94.273438 118.363281 C 94.273438 66.75 135.984375 25.234375 187.402344 25.234375 C 238.632812 25.234375 280.34375 67.132812 280.34375 118.363281 C 280.34375 141.40625 271.960938 163.308594 256.917969 180.066406 C 255.582031 181.78125 254.25 180.257812 252.726562 178.925781 C 251.203125 177.589844 249.871094 176.640625 251.203125 175.117188 C 265.296875 159.5 272.914062 139.121094 272.914062 118.363281 C 272.722656 70.941406 234.445312 32.660156 187.402344 32.660156 C 140.363281 32.660156 101.894531 70.941406 101.894531 118.363281 C 101.894531 165.402344 140.363281 203.683594 187.402344 203.683594 C 199.402344 203.683594 211.210938 201.207031 222.253906 196.253906 C 224.160156 195.492188 226.445312 196.253906 227.207031 198.160156 C 227.96875 200.0625 227.207031 202.347656 225.304688 203.109375 C 213.304688 208.445312 200.542969 211.300781 187.402344 211.300781 Z M 187.402344 211.300781 "/></g><path style=" stroke:none;fill-rule:evenodd;fill:#ffde59;fill-opacity:1;" d="M 221.683594 171.496094 L 143.980469 171.496094 C 143.03125 171.496094 141.886719 170.925781 141.125 170.164062 C 140.363281 169.402344 139.984375 168.257812 139.984375 167.117188 L 148.550781 91.320312 C 148.742188 89.605469 150.265625 87.890625 152.171875 87.890625 L 222.253906 87.890625 C 224.160156 87.890625 225.875 89.605469 225.875 91.320312 L 233.492188 160.832031 C 233.871094 162.925781 232.539062 162.738281 230.445312 162.925781 C 228.351562 163.308594 226.253906 163.6875 225.875 161.59375 L 219.019531 95.507812 L 155.597656 95.507812 L 148.171875 163.6875 L 221.683594 163.6875 C 223.777344 163.6875 225.304688 165.402344 225.304688 167.496094 C 225.304688 169.59375 223.777344 171.496094 221.683594 171.496094 Z M 221.683594 171.496094 "/><path style=" stroke:none;fill-rule:evenodd;fill:#ffde59;fill-opacity:1;" d="M 203.402344 109.03125 C 201.304688 109.03125 199.78125 107.507812 199.78125 105.410156 L 199.78125 85.035156 C 199.78125 78.179688 194.261719 72.84375 187.59375 72.84375 C 180.738281 72.84375 175.40625 78.367188 175.40625 85.035156 L 175.40625 105.410156 C 175.40625 107.507812 173.882812 109.03125 171.789062 109.03125 C 169.691406 109.03125 167.976562 107.507812 167.976562 105.410156 L 167.976562 85.035156 C 167.976562 74.179688 177.121094 65.226562 187.785156 65.226562 C 198.640625 65.226562 207.589844 74.179688 207.589844 85.035156 L 207.589844 105.410156 C 207.210938 107.316406 205.496094 109.03125 203.402344 109.03125 Z M 203.402344 109.03125 "/><path style=" stroke:none;fill-rule:evenodd;fill:#ffde59;fill-opacity:1;" d="M 224.921875 220.25 C 224.539062 220.25 224.160156 220.25 223.777344 220.0625 C 222.253906 219.488281 221.113281 218.15625 221.113281 216.632812 L 217.496094 155.308594 C 217.496094 153.976562 218.066406 152.453125 219.398438 151.878906 C 220.542969 151.117188 222.253906 151.308594 223.207031 152.070312 L 274.058594 186.734375 C 275.390625 187.496094 275.769531 189.398438 275.582031 190.921875 C 275.007812 192.636719 273.675781 193.589844 272.152344 193.96875 L 244.15625 196.253906 L 227.777344 219.300781 C 227.207031 219.871094 225.875 220.25 224.921875 220.25 Z M 225.304688 162.738281 L 227.96875 205.585938 L 239.207031 189.96875 C 239.585938 189.207031 240.730469 188.257812 242.0625 188.257812 L 261.105469 186.734375 Z M 225.304688 162.738281 "/><path style=" stroke:none;fill-rule:evenodd;fill:#ffde59;fill-opacity:1;" d="M 255.773438 220.0625 C 254.441406 220.0625 253.109375 219.300781 252.347656 218.15625 L 239.207031 194.921875 C 238.253906 193.015625 238.824219 190.730469 240.539062 189.589844 C 242.441406 188.636719 244.726562 189.019531 245.871094 190.921875 L 259.011719 214.15625 C 259.964844 216.0625 259.394531 218.539062 257.679688 219.488281 C 257.109375 219.871094 256.34375 220.0625 255.773438 220.0625 Z M 255.773438 220.0625 "/></g></svg>