<svg xmlns="http://www.w3.org/2000/svg" xmlns:xlink="http://www.w3.org/1999/xlink" width="500" zoomAndPan="magnify" viewBox="0 0 375 374.999991" height="500" preserveAspectRatio="xMidYMid meet" version="1.2"><defs><clipPath id="b0e965694a"><path d="M 28.476562 41.921875 L 346.363281 41.921875 L 346.363281 332.921875 L 28.476562 332.921875 Z M 28.476562 41.921875 "/></clipPath></defs><g id="b07e241c0a"><path style=" stroke:none;fill-rule:nonzero;fill:#ffde59;fill-opacity:1;" d="M 291.199219 277.941406 C 293.589844 277.941406 295.527344 276.003906 295.527344 273.617188 C 295.527344 271.230469 293.589844 269.292969 291.199219 269.292969 C 288.8125 269.292969 286.878906 271.230469 286.878906 273.617188 C 286.878906 276.003906 288.8125 277.941406 291.199219 277.941406 "/><g clip-rule="nonzero" clip-path="url(#b0e965694a)"><path style=" stroke:none;fill-rule:nonzero;fill:#ffde59;fill-opacity:1;" d="M 288.109375 194.792969 L 277.753906 190.730469 L 320.140625 82.632812 L 330.5 86.699219 Z M 312.554688 256.894531 L 55.351562 256.894531 L 55.351562 160.875 L 58.941406 160.875 L 58.941406 251.757812 L 308.96875 251.757812 L 308.96875 159.121094 L 312.554688 149.972656 Z M 210.921875 314.355469 L 156.988281 314.355469 L 161.597656 292.953125 L 206.3125 292.953125 Z M 228.917969 326.535156 L 138.988281 326.535156 L 138.988281 320.753906 L 228.917969 320.753906 Z M 312.554688 272.808594 C 312.554688 275.582031 311.667969 278.164062 310.15625 280.324219 C 307.53125 284.074219 303.003906 286.558594 297.871094 286.558594 L 70.039062 286.558594 C 61.9375 286.558594 55.351562 280.390625 55.351562 272.808594 L 55.351562 263.289062 L 312.554688 263.289062 Z M 34.875 154.480469 L 34.875 137.75 L 71.289062 102.96875 L 104.015625 141.050781 L 126.164062 119.5 L 143.839844 137.679688 L 143.839844 154.480469 Z M 75.527344 81.164062 L 143.839844 81.164062 L 143.839844 128.507812 L 126.289062 110.457031 L 104.429688 131.722656 L 71.746094 93.6875 L 34.875 128.910156 L 34.875 81.164062 Z M 81.925781 65.855469 C 81.925781 57.515625 89.269531 50.738281 98.300781 50.738281 L 271.621094 50.738281 C 280.65625 50.738281 288.007812 57.515625 288.007812 65.855469 L 288.007812 99.054688 L 255.484375 181.996094 L 253.589844 186.832031 L 257.273438 203.234375 C 256.910156 204.25 256.726562 205.335938 256.757812 206.40625 L 257.164062 220.910156 C 257.234375 223.390625 258.457031 225.339844 260.441406 226.117188 C 261.019531 226.339844 261.613281 226.453125 262.210938 226.453125 C 263.671875 226.453125 265.15625 225.789062 266.386719 224.527344 L 276.546875 214.164062 C 277.296875 213.402344 277.898438 212.484375 278.316406 211.492188 L 288.007812 204.824219 L 288.007812 233.972656 L 294.398438 233.972656 L 294.398438 196.285156 L 302.574219 175.433594 L 302.574219 245.363281 L 65.335938 245.363281 L 65.335938 160.875 L 75.527344 160.875 L 75.527344 233.972656 L 81.925781 233.972656 L 81.925781 160.875 L 150.234375 160.875 L 150.234375 74.765625 L 81.925781 74.765625 Z M 261.4375 184.328125 L 303.828125 76.234375 L 314.1875 80.296875 L 271.796875 188.394531 Z M 263.648438 204.714844 L 264.203125 204.9375 L 272.078125 208.015625 L 272.636719 208.238281 C 272.578125 208.675781 272.371094 209.285156 271.976562 209.691406 L 263.488281 218.355469 L 263.148438 206.222656 C 263.136719 205.664062 263.394531 205.074219 263.648438 204.714844 Z M 277.785156 204.09375 C 277.25 203.425781 276.558594 202.910156 275.761719 202.597656 L 265.195312 198.453125 C 264.394531 198.140625 263.542969 198.054688 262.691406 198.183594 L 261.09375 191.066406 L 283.785156 199.96875 Z M 331.386719 80.167969 L 307.605469 70.84375 L 306.160156 70.28125 L 307.941406 65.742188 L 334.613281 76.199219 L 332.839844 80.738281 Z M 312.726562 53.539062 C 314.378906 49.320312 319.167969 47.226562 323.394531 48.886719 L 334.746094 53.335938 C 338.96875 54.992188 341.058594 59.777344 339.398438 64.007812 L 337.390625 69.132812 L 310.710938 58.675781 Z M 337.082031 47.386719 L 325.726562 42.929688 C 318.214844 39.988281 309.714844 43.703125 306.773438 51.207031 L 304.757812 56.339844 L 301.992188 63.410156 L 298.535156 72.226562 C 298.503906 72.289062 298.476562 72.351562 298.453125 72.417969 L 294.398438 82.761719 L 294.398438 65.855469 C 294.398438 53.992188 284.179688 44.34375 271.621094 44.34375 L 98.300781 44.34375 C 85.746094 44.34375 75.527344 53.992188 75.527344 65.855469 L 75.527344 74.765625 L 28.476562 74.765625 L 28.476562 160.875 L 48.957031 160.875 L 48.957031 272.808594 C 48.957031 283.917969 58.414062 292.953125 70.035156 292.953125 L 155.054688 292.953125 L 150.441406 314.355469 L 132.59375 314.355469 L 132.59375 332.929688 L 235.3125 332.929688 L 235.3125 314.355469 L 217.460938 314.355469 L 212.851562 292.953125 L 297.867188 292.953125 C 301.136719 292.953125 304.234375 292.238281 306.996094 290.964844 C 314.0625 287.707031 318.953125 280.796875 318.953125 272.808594 L 318.953125 133.664062 L 336.453125 89.027344 L 336.457031 89.027344 L 340.570312 78.539062 L 345.359375 66.339844 C 348.300781 58.835938 344.585938 50.328125 337.082031 47.386719 "/></g><path style=" stroke:none;fill-rule:nonzero;fill:#ffde59;fill-opacity:1;" d="M 105.558594 93.199219 C 109.78125 93.199219 113.214844 96.636719 113.214844 100.855469 C 113.214844 105.074219 109.78125 108.507812 105.558594 108.507812 C 101.339844 108.507812 97.90625 105.074219 97.90625 100.855469 C 97.90625 96.636719 101.339844 93.199219 105.558594 93.199219 Z M 105.558594 114.90625 C 113.308594 114.90625 119.609375 108.601562 119.609375 100.855469 C 119.609375 93.105469 113.308594 86.804688 105.558594 86.804688 C 97.8125 86.804688 91.511719 93.105469 91.511719 100.855469 C 91.511719 108.601562 97.8125 114.90625 105.558594 114.90625 "/><path style=" stroke:none;fill-rule:nonzero;fill:#ffde59;fill-opacity:1;" d="M 266.503906 87.980469 L 250.609375 87.980469 L 250.609375 94.375 L 266.503906 94.375 L 266.503906 87.980469 "/><path style=" stroke:none;fill-rule:nonzero;fill:#ffde59;fill-opacity:1;" d="M 233.53125 87.980469 L 172.058594 87.980469 L 172.058594 94.375 L 233.53125 94.375 L 233.53125 87.980469 "/><path style=" stroke:none;fill-rule:nonzero;fill:#ffde59;fill-opacity:1;" d="M 210.378906 112.246094 L 266.503906 112.246094 L 266.503906 105.851562 L 210.378906 105.851562 L 210.378906 112.246094 "/><path style=" stroke:none;fill-rule:nonzero;fill:#ffde59;fill-opacity:1;" d="M 201.839844 105.851562 L 172.058594 105.851562 L 172.058594 112.246094 L 201.839844 112.246094 L 201.839844 105.851562 "/><path style=" stroke:none;fill-rule:nonzero;fill:#ffde59;fill-opacity:1;" d="M 174.964844 134.222656 L 245.792969 134.222656 L 245.792969 127.828125 L 174.964844 127.828125 L 174.964844 134.222656 "/><path style=" stroke:none;fill-rule:nonzero;fill:#ffde59;fill-opacity:1;" d="M 209.394531 153.351562 L 245.792969 153.351562 L 245.792969 146.957031 L 209.394531 146.957031 L 209.394531 153.351562 "/><path style=" stroke:none;fill-rule:nonzero;fill:#ffde59;fill-opacity:1;" d="M 202.160156 146.957031 L 174.964844 146.957031 L 174.964844 153.351562 L 202.160156 153.351562 L 202.160156 146.957031 "/><path style=" stroke:none;fill-rule:nonzero;fill:#ffde59;fill-opacity:1;" d="M 193.851562 172.742188 L 239.28125 172.742188 L 239.28125 166.347656 L 193.851562 166.347656 L 193.851562 172.742188 "/><path style=" stroke:none;fill-rule:nonzero;fill:#ffde59;fill-opacity:1;" d="M 174.964844 172.742188 L 188.5625 172.742188 L 188.5625 166.347656 L 174.964844 166.347656 L 174.964844 172.742188 "/><path style=" stroke:none;fill-rule:nonzero;fill:#ffde59;fill-opacity:1;" d="M 221.347656 198.878906 L 237.246094 198.878906 L 237.246094 192.484375 L 221.347656 192.484375 L 221.347656 198.878906 "/><path style=" stroke:none;fill-rule:nonzero;fill:#ffde59;fill-opacity:1;" d="M 173.535156 198.878906 L 216.664062 198.878906 L 216.664062 192.484375 L 173.535156 192.484375 L 173.535156 198.878906 "/></g></svg>