<svg xmlns="http://www.w3.org/2000/svg" xmlns:xlink="http://www.w3.org/1999/xlink" width="500" zoomAndPan="magnify" viewBox="0 0 375 374.999991" height="500" preserveAspectRatio="xMidYMid meet" version="1.2"><defs><clipPath id="923e546280"><path d="M 26.566406 25.554688 L 348.316406 25.554688 L 348.316406 349.554688 L 26.566406 349.554688 Z M 26.566406 25.554688 "/></clipPath></defs><g id="a5c1cbd0e8"><path style=" stroke:none;fill-rule:evenodd;fill:#1c1c1c;fill-opacity:1;" d="M 80.523438 186.15625 C 88.660156 186.15625 95.277344 192.773438 95.277344 200.910156 C 95.277344 209.046875 88.664062 215.671875 80.523438 215.671875 C 72.382812 215.671875 65.765625 209.050781 65.765625 200.910156 C 65.765625 192.769531 72.386719 186.15625 80.523438 186.15625 Z M 259.761719 89.800781 L 287.671875 114.378906 L 259.761719 136.574219 Z M 312.628906 114.378906 L 340.5625 89.800781 L 340.5625 136.574219 Z M 223.222656 136.089844 C 220.863281 132.363281 220.882812 127.777344 223.28125 124.074219 L 230.402344 113.085938 C 231.472656 111.433594 231.667969 109.625 230.972656 107.78125 L 218.726562 75.144531 C 218.089844 73.453125 216.769531 72.152344 215.058594 71.585938 C 214.457031 71.386719 213.824219 71.28125 213.191406 71.28125 C 212.042969 71.28125 210.957031 71.613281 209.992188 72.230469 L 192.910156 83.144531 C 186.011719 87.550781 182.875 95.3125 184.777344 103.273438 C 191.226562 130.304688 205.390625 154.730469 225.015625 174.359375 C 244.65625 194 269.082031 208.1875 296.136719 214.644531 C 304.089844 216.542969 311.851562 213.394531 316.253906 206.511719 L 327.1875 189.421875 C 328.15625 187.910156 328.402344 186.054688 327.835938 184.351562 C 327.269531 182.648438 325.960938 181.316406 324.28125 180.683594 L 291.636719 168.4375 C 289.796875 167.746094 287.988281 167.949219 286.335938 169.015625 L 275.339844 176.125 C 271.636719 178.523438 267.054688 178.5625 263.324219 176.199219 C 255.269531 171.101562 247.792969 165.09375 241.050781 158.351562 C 234.316406 151.617188 228.3125 144.140625 223.222656 136.089844 Z M 156.171875 48.371094 L 151.316406 33.445312 L 240.601562 33.445312 L 235.746094 48.371094 Z M 207.867188 306.480469 C 211.339844 306.480469 214.164062 309.300781 214.164062 312.773438 C 214.164062 316.25 211.34375 319.078125 207.867188 319.078125 L 184.050781 319.078125 C 180.578125 319.078125 177.753906 316.246094 177.753906 312.773438 C 177.753906 309.304688 180.582031 306.480469 184.050781 306.480469 Z M 207.867188 306.480469 "/><g clip-rule="nonzero" clip-path="url(#923e546280)"><path style=" stroke:none;fill-rule:evenodd;fill:#ffde59;fill-opacity:1;" d="M 276.367188 166.136719 L 271.082031 169.554688 C 269.941406 170.300781 268.664062 170.3125 267.503906 169.578125 C 259.972656 164.820312 252.941406 159.179688 246.597656 152.828125 C 246.59375 152.820312 246.59375 152.820312 246.59375 152.820312 C 240.238281 146.476562 234.597656 139.4375 229.835938 131.910156 C 229.105469 130.753906 229.109375 129.480469 229.855469 128.332031 L 236.972656 117.339844 C 239.402344 113.585938 239.878906 109.210938 238.304688 105.03125 L 226.0625 72.394531 C 224.589844 68.476562 221.484375 65.476562 217.535156 64.15625 C 213.589844 62.839844 209.300781 63.382812 205.777344 65.628906 L 188.691406 76.546875 C 179.019531 82.726562 174.492188 93.933594 177.160156 105.097656 C 183.886719 133.296875 198.535156 159.179688 219.480469 179.898438 C 235.742188 196.339844 255.152344 208.890625 276.367188 216.792969 L 276.367188 330.472656 C 276.367188 335.070312 272.621094 338.816406 268.019531 338.816406 L 123.894531 338.816406 C 119.296875 338.816406 115.550781 335.070312 115.550781 330.472656 L 115.550781 279.179688 L 183.058594 279.179688 C 189.136719 279.179688 194.085938 274.222656 194.085938 268.144531 L 194.085938 164.324219 C 194.085938 158.242188 189.136719 153.296875 183.058594 153.296875 L 115.550781 153.296875 L 115.550781 44.394531 C 115.550781 39.792969 119.296875 36.054688 123.898438 36.054688 L 143.933594 36.054688 L 149.3125 52.601562 C 150.007812 54.75 152.011719 56.207031 154.269531 56.207031 L 237.648438 56.207031 C 239.90625 56.207031 241.90625 54.75 242.613281 52.601562 L 247.980469 36.054688 L 268.019531 36.054688 C 272.621094 36.054688 276.367188 39.792969 276.367188 44.394531 L 276.367188 78.800781 L 262.574219 78.800781 C 256.707031 78.800781 251.929688 83.570312 251.929688 89.4375 L 251.929688 136.5625 C 251.929688 142.425781 256.707031 147.195312 262.574219 147.195312 L 276.367188 147.195312 Z M 290.71875 170.882812 C 289.652344 170.484375 288.707031 170.582031 287.753906 171.207031 L 276.757812 178.320312 C 272.203125 181.277344 266.519531 181.308594 261.925781 178.40625 C 253.742188 173.222656 246.105469 167.105469 239.207031 160.199219 C 232.308594 153.308594 226.1875 145.667969 221.015625 137.488281 C 218.109375 132.898438 218.144531 127.214844 221.09375 122.65625 L 228.210938 111.667969 C 228.832031 110.707031 228.9375 109.769531 228.53125 108.699219 L 216.285156 76.0625 C 215.796875 74.757812 214.789062 74.246094 214.234375 74.0625 C 213.988281 73.980469 213.625 73.894531 213.191406 73.894531 C 212.664062 73.894531 212.046875 74.019531 211.398438 74.429688 L 194.316406 85.347656 C 188.351562 89.15625 185.667969 95.792969 187.316406 102.667969 C 193.589844 128.980469 207.265625 153.128906 226.859375 172.515625 C 246.285156 192.152344 270.441406 205.828125 296.746094 212.105469 C 303.625 213.746094 310.28125 211.0625 314.058594 205.105469 L 324.992188 188.015625 C 325.730469 186.84375 325.542969 185.734375 325.359375 185.175781 C 325.175781 184.625 324.65625 183.617188 323.363281 183.128906 Z M 37.023438 268.144531 C 37.023438 268.457031 37.296875 268.734375 37.609375 268.734375 L 183.058594 268.734375 C 183.371094 268.734375 183.644531 268.457031 183.644531 268.144531 L 183.644531 164.324219 C 183.644531 164.007812 183.371094 163.734375 183.058594 163.734375 L 37.609375 163.734375 C 37.296875 163.734375 37.023438 164.007812 37.023438 164.324219 Z M 237.007812 36.054688 L 154.910156 36.054688 L 158.066406 45.761719 L 233.851562 45.761719 Z M 316.699219 114.277344 L 337.949219 95.574219 L 337.949219 131.164062 Z M 291.5625 121.292969 L 272.105469 136.753906 L 328.214844 136.753906 L 308.742188 121.292969 L 303.609375 125.816406 C 302.617188 126.6875 301.390625 127.117188 300.15625 127.117188 C 298.921875 127.117188 297.6875 126.6875 296.707031 125.816406 Z M 283.609375 114.277344 L 262.371094 95.574219 L 262.371094 131.164062 Z M 300.15625 114.941406 L 329.351562 89.238281 L 270.976562 89.238281 Z M 337.734375 78.800781 L 286.808594 78.800781 L 286.808594 44.394531 C 286.808594 34.035156 278.378906 25.617188 268.019531 25.617188 L 123.894531 25.617188 C 113.539062 25.617188 105.109375 34.035156 105.109375 44.394531 L 105.109375 153.296875 L 37.609375 153.296875 C 31.527344 153.296875 26.582031 158.242188 26.582031 164.324219 L 26.582031 268.144531 C 26.582031 274.226562 31.527344 279.179688 37.609375 279.179688 L 105.109375 279.179688 L 105.109375 330.472656 C 105.109375 340.824219 113.539062 349.253906 123.894531 349.253906 L 268.019531 349.253906 C 278.378906 349.253906 286.808594 340.824219 286.808594 330.472656 L 286.808594 220.257812 C 289.292969 220.988281 291.796875 221.660156 294.324219 222.257812 C 296.441406 222.769531 298.570312 223.011719 300.664062 223.011719 C 309.570312 223.011719 317.863281 218.550781 322.871094 210.722656 L 333.773438 193.640625 C 336.046875 190.113281 336.566406 185.824219 335.246094 181.875 C 333.957031 177.929688 330.949219 174.824219 327.015625 173.355469 L 294.386719 161.105469 C 291.867188 160.160156 289.28125 159.964844 286.808594 160.480469 L 286.808594 147.195312 L 337.734375 147.195312 C 343.601562 147.195312 348.363281 142.425781 348.363281 136.5625 L 348.363281 89.4375 C 348.363281 83.570312 343.601562 78.800781 337.734375 78.800781 Z M 174.972656 193.015625 C 174.972656 190.136719 172.632812 187.792969 169.753906 187.792969 L 133.238281 187.792969 C 130.359375 187.792969 128.019531 190.136719 128.019531 193.015625 C 128.019531 195.898438 130.359375 198.230469 133.238281 198.230469 L 169.753906 198.230469 C 172.632812 198.230469 174.972656 195.898438 174.972656 193.015625 Z M 174.972656 239.453125 C 174.972656 236.574219 172.632812 234.234375 169.753906 234.234375 L 133.238281 234.234375 C 130.359375 234.234375 128.019531 236.574219 128.019531 239.453125 C 128.019531 242.339844 130.359375 244.671875 133.238281 244.671875 L 169.753906 244.671875 C 172.632812 244.671875 174.972656 242.339844 174.972656 239.453125 Z M 174.972656 216.234375 C 174.972656 213.351562 172.632812 211.019531 169.753906 211.019531 L 133.238281 211.019531 C 130.359375 211.019531 128.019531 213.351562 128.019531 216.234375 C 128.019531 219.121094 130.359375 221.457031 133.238281 221.457031 L 169.753906 221.457031 C 172.632812 221.457031 174.972656 219.121094 174.972656 216.234375 Z M 52.773438 243.707031 C 56.550781 231.855469 67.613281 223.5 80.515625 223.5 C 93.433594 223.5 104.488281 231.855469 108.265625 243.707031 Z M 80.523438 188.765625 C 87.21875 188.765625 92.667969 194.214844 92.667969 200.910156 C 92.667969 207.613281 87.21875 213.058594 80.523438 213.058594 C 73.820312 213.058594 68.375 207.613281 68.375 200.910156 C 68.375 194.214844 73.820312 188.765625 80.523438 188.765625 Z M 96.804688 216.539062 C 100.707031 212.476562 103.105469 206.96875 103.105469 200.910156 C 103.105469 188.453125 92.976562 178.328125 80.523438 178.328125 C 68.066406 178.328125 57.933594 188.453125 57.933594 200.910156 C 57.933594 206.972656 60.335938 212.476562 64.238281 216.539062 C 51.796875 222.136719 42.71875 233.992188 41.179688 248.375 C 41.023438 249.847656 41.5 251.316406 42.488281 252.417969 C 43.476562 253.523438 44.890625 254.148438 46.371094 254.148438 L 114.671875 254.148438 C 116.152344 254.148438 117.5625 253.523438 118.550781 252.417969 C 119.542969 251.316406 120.019531 249.847656 119.863281 248.375 C 118.324219 233.992188 109.246094 222.140625 96.804688 216.539062 Z M 211.554688 312.773438 C 211.554688 310.746094 209.902344 309.089844 207.867188 309.089844 L 184.050781 309.089844 C 182.023438 309.089844 180.363281 310.746094 180.363281 312.773438 C 180.363281 314.8125 182.023438 316.46875 184.050781 316.46875 L 207.867188 316.46875 C 209.902344 316.46875 211.554688 314.8125 211.554688 312.773438 Z M 169.921875 312.773438 C 169.921875 320.566406 176.257812 326.910156 184.050781 326.910156 L 207.867188 326.910156 C 215.65625 326.910156 221.992188 320.566406 221.992188 312.773438 C 221.992188 304.984375 215.65625 298.648438 207.867188 298.648438 L 184.050781 298.648438 C 176.257812 298.648438 169.921875 304.984375 169.921875 312.773438 Z M 169.921875 312.773438 "/></g></g></svg>