<svg xmlns="http://www.w3.org/2000/svg" xmlns:xlink="http://www.w3.org/1999/xlink" width="500" zoomAndPan="magnify" viewBox="0 0 375 374.999991" height="500" preserveAspectRatio="xMidYMid meet" version="1.2"><defs><clipPath id="cfdc4b4105"><path d="M 36.253906 38.726562 L 338 38.726562 L 338 336.476562 L 36.253906 336.476562 Z M 36.253906 38.726562 "/></clipPath></defs><g id="6f762df9d4"><g clip-rule="nonzero" clip-path="url(#cfdc4b4105)"><path style=" stroke:none;fill-rule:evenodd;fill:#ffde59;fill-opacity:1;" d="M 193.742188 102.546875 L 52.472656 102.546875 C 48.328125 102.546875 44.347656 104.234375 41.414062 107.25 C 38.535156 110.210938 36.90625 114.226562 36.90625 118.417969 C 36.90625 130.5625 36.90625 141.382812 36.90625 164.8125 C 36.90625 167.675781 39.230469 170 42.09375 170 C 44.960938 170 47.285156 167.675781 47.285156 164.8125 L 47.285156 118.417969 C 47.285156 116.941406 47.84375 115.523438 48.855469 114.480469 C 49.816406 113.492188 51.113281 112.925781 52.472656 112.925781 L 196.941406 112.925781 C 205.035156 131.976562 223.925781 145.355469 245.914062 145.355469 C 267.90625 145.355469 286.796875 131.976562 294.890625 112.925781 C 294.941406 112.925781 322.40625 112.925781 322.40625 112.925781 C 323.71875 112.960938 324.96875 113.519531 325.898438 114.480469 C 326.910156 115.523438 327.46875 116.941406 327.46875 118.417969 L 327.46875 253.019531 L 306.714844 253.019531 C 303.851562 253.019531 301.527344 255.34375 301.527344 258.207031 C 301.527344 261.070312 303.851562 263.394531 306.714844 263.394531 L 327.46875 263.394531 L 327.46875 278.65625 C 327.46875 280.132812 326.910156 281.550781 325.898438 282.59375 C 324.9375 283.582031 323.640625 284.148438 322.28125 284.148438 C 322.28125 284.148438 52.472656 284.148438 52.472656 284.148438 C 51.113281 284.148438 49.816406 283.582031 48.855469 282.59375 C 47.84375 281.550781 47.285156 280.132812 47.285156 278.65625 L 47.285156 263.394531 L 285.960938 263.394531 C 288.824219 263.394531 291.148438 261.070312 291.148438 258.207031 C 291.148438 255.34375 288.824219 253.019531 285.960938 253.019531 L 47.285156 253.019531 L 47.285156 206.320312 C 47.285156 203.457031 44.960938 201.132812 42.09375 201.132812 C 39.230469 201.132812 36.90625 203.457031 36.90625 206.320312 L 36.90625 278.65625 C 36.90625 282.847656 38.535156 286.863281 41.410156 289.824219 C 44.347656 292.839844 48.328125 294.527344 52.472656 294.527344 L 156.246094 294.527344 L 156.246094 325.660156 L 145.867188 325.660156 C 143.003906 325.660156 140.679688 327.984375 140.679688 330.847656 C 140.679688 333.710938 143.003906 336.035156 145.867188 336.035156 L 228.886719 336.035156 C 231.75 336.035156 234.074219 333.710938 234.074219 330.847656 C 234.074219 327.984375 231.75 325.660156 228.886719 325.660156 L 218.507812 325.660156 L 218.507812 294.527344 L 322.28125 294.527344 C 326.425781 294.527344 330.40625 292.839844 333.34375 289.824219 C 336.21875 286.863281 337.847656 282.847656 337.847656 278.65625 C 337.847656 246.460938 337.847656 150.613281 337.847656 118.417969 C 337.847656 114.226562 336.21875 110.210938 333.339844 107.25 C 330.5 104.328125 326.675781 102.65625 322.671875 102.550781 L 298.082031 102.546875 C 298.75 99.191406 299.097656 95.722656 299.097656 92.171875 C 299.097656 88.261719 298.671875 84.449219 297.875 80.78125 L 315.890625 62.765625 C 317.914062 60.738281 317.914062 57.453125 315.890625 55.429688 L 301.210938 40.75 C 299.1875 38.726562 295.902344 38.726562 293.875 40.75 L 281.738281 52.886719 C 281.660156 52.804688 281.578125 52.726562 281.492188 52.648438 C 272.066406 44.160156 259.585938 38.988281 245.914062 38.988281 C 216.5625 38.988281 192.730469 62.816406 192.730469 92.171875 C 192.730469 95.722656 193.078125 99.191406 193.742188 102.546875 Z M 208.132812 294.527344 L 208.132812 325.660156 C 208.132812 325.660156 166.621094 325.660156 166.621094 325.660156 C 166.621094 325.660156 166.621094 294.527344 166.621094 294.527344 Z M 62.851562 278.960938 L 68.039062 278.960938 C 70.902344 278.960938 73.226562 276.636719 73.226562 273.773438 C 73.226562 270.90625 70.902344 268.582031 68.039062 268.582031 L 62.851562 268.582031 C 59.984375 268.582031 57.660156 270.90625 57.660156 273.773438 C 57.660156 276.636719 59.984375 278.960938 62.851562 278.960938 Z M 148.460938 242.640625 L 161.433594 242.640625 C 165.5625 242.640625 169.523438 241 172.4375 238.078125 C 175.359375 235.164062 177 231.203125 177 227.074219 C 177 219.851562 177 211.507812 177 211.507812 C 177 208.644531 174.675781 206.320312 171.8125 206.320312 C 168.949219 206.320312 166.621094 208.644531 166.621094 211.507812 C 166.621094 211.507812 166.621094 219.851562 166.621094 227.074219 C 166.621094 228.449219 166.078125 229.773438 165.101562 230.742188 C 164.132812 231.71875 162.808594 232.261719 161.433594 232.261719 L 148.460938 232.261719 C 145.597656 232.261719 143.273438 234.585938 143.273438 237.453125 C 143.273438 240.316406 145.597656 242.640625 148.460938 242.640625 Z M 86.199219 232.261719 L 73.226562 232.261719 C 71.851562 232.261719 70.53125 231.71875 69.558594 230.742188 C 68.582031 229.773438 68.039062 228.449219 68.039062 227.074219 L 68.039062 211.507812 C 68.039062 208.644531 65.714844 206.320312 62.851562 206.320312 C 59.984375 206.320312 57.660156 208.644531 57.660156 211.507812 C 57.660156 211.507812 57.660156 219.851562 57.660156 227.074219 C 57.660156 231.203125 59.300781 235.164062 62.222656 238.078125 C 65.136719 241 69.097656 242.640625 73.226562 242.640625 L 86.199219 242.640625 C 89.0625 242.640625 91.386719 240.316406 91.386719 237.453125 C 91.386719 234.585938 89.0625 232.261719 86.199219 232.261719 Z M 205.703125 232.261719 L 286.128906 232.261719 C 288.992188 232.261719 291.316406 229.9375 291.316406 227.074219 C 291.316406 224.210938 288.992188 221.886719 286.128906 221.886719 L 205.703125 221.886719 C 202.839844 221.886719 200.515625 224.210938 200.515625 227.074219 C 200.515625 229.9375 202.839844 232.261719 205.703125 232.261719 Z M 102.117188 187.167969 C 88.171875 192.921875 78.417969 206.335938 78.417969 221.886719 C 78.417969 224.75 80.742188 227.074219 83.605469 227.074219 L 151.058594 227.074219 C 153.921875 227.074219 156.246094 224.75 156.246094 221.886719 C 156.246094 206.335938 146.492188 192.921875 132.542969 187.167969 C 139.398438 182.371094 143.882812 174.410156 143.882812 165.417969 C 143.882812 150.765625 131.984375 138.867188 117.332031 138.867188 C 102.679688 138.867188 90.78125 150.765625 90.78125 165.417969 C 90.78125 174.410156 95.261719 182.371094 102.117188 187.167969 Z M 89.308594 216.699219 C 91.84375 204.058594 103.472656 194.550781 117.332031 194.550781 C 131.191406 194.550781 142.816406 204.058594 145.355469 216.699219 Z M 205.703125 201.132812 L 286.128906 201.132812 C 288.992188 201.132812 291.316406 198.808594 291.316406 195.941406 C 291.316406 193.078125 288.992188 190.753906 286.128906 190.753906 L 205.703125 190.753906 C 202.839844 190.753906 200.515625 193.078125 200.515625 195.941406 C 200.515625 198.808594 202.839844 201.132812 205.703125 201.132812 Z M 36.90625 180.375 L 36.90625 190.753906 C 36.90625 193.617188 39.230469 195.941406 42.09375 195.941406 C 44.960938 195.941406 47.285156 193.617188 47.285156 190.753906 L 47.285156 180.375 C 47.285156 177.511719 44.960938 175.1875 42.09375 175.1875 C 39.230469 175.1875 36.90625 177.511719 36.90625 180.375 Z M 117.332031 149.246094 C 126.253906 149.246094 133.503906 156.492188 133.503906 165.417969 C 133.503906 174.34375 126.253906 181.585938 117.332031 181.585938 C 108.40625 181.585938 101.15625 174.34375 101.15625 165.417969 C 101.15625 156.492188 108.40625 149.246094 117.332031 149.246094 Z M 205.703125 170 L 286.128906 170 C 288.992188 170 291.316406 167.675781 291.316406 164.8125 C 291.316406 161.945312 288.992188 159.621094 286.128906 159.621094 L 205.703125 159.621094 C 202.839844 159.621094 200.515625 161.945312 200.515625 164.8125 C 200.515625 167.675781 202.839844 170 205.703125 170 Z M 86.199219 123.300781 L 73.226562 123.300781 C 69.097656 123.300781 65.136719 124.941406 62.222656 127.863281 C 59.300781 130.777344 57.660156 134.738281 57.660156 138.867188 C 57.660156 146.089844 57.660156 154.433594 57.660156 154.433594 C 57.660156 157.296875 59.984375 159.621094 62.851562 159.621094 C 65.714844 159.621094 68.039062 157.296875 68.039062 154.433594 C 68.039062 154.433594 68.039062 146.089844 68.039062 138.867188 C 68.039062 137.492188 68.582031 136.167969 69.558594 135.199219 C 70.53125 134.222656 71.851562 133.679688 73.226562 133.679688 L 86.199219 133.679688 C 89.0625 133.679688 91.386719 131.355469 91.386719 128.492188 C 91.386719 125.625 89.0625 123.300781 86.199219 123.300781 Z M 148.460938 133.679688 L 161.433594 133.679688 C 162.808594 133.679688 164.132812 134.222656 165.101562 135.199219 C 166.078125 136.167969 166.621094 137.492188 166.621094 138.867188 L 166.621094 154.433594 C 166.621094 157.296875 168.949219 159.621094 171.8125 159.621094 C 174.675781 159.621094 177 157.296875 177 154.433594 C 177 154.433594 177 146.089844 177 138.867188 C 177 134.738281 175.359375 130.777344 172.4375 127.863281 C 169.523438 124.941406 165.5625 123.300781 161.433594 123.300781 L 148.460938 123.300781 C 145.597656 123.300781 143.273438 125.625 143.273438 128.492188 C 143.273438 131.355469 145.597656 133.679688 148.460938 133.679688 Z M 274.394531 60.230469 C 266.832031 53.472656 256.847656 49.363281 245.914062 49.363281 C 222.292969 49.363281 203.109375 68.546875 203.109375 92.171875 C 203.109375 115.792969 222.292969 134.976562 245.914062 134.976562 C 269.539062 134.976562 288.722656 115.792969 288.722656 92.171875 C 288.722656 91.4375 288.699219 90.710938 288.664062 89.984375 L 254.273438 124.375 C 252.25 126.40625 248.964844 126.40625 246.9375 124.375 L 232.828125 110.269531 C 232.632812 110.121094 232.445312 109.957031 232.265625 109.773438 L 212.246094 89.761719 C 210.21875 87.734375 210.21875 84.449219 212.246094 82.421875 L 226.917969 67.746094 C 228.949219 65.71875 232.234375 65.71875 234.261719 67.746094 L 250.570312 84.054688 Z M 254.765625 94.53125 C 254.621094 94.726562 254.457031 94.921875 254.273438 95.101562 L 243.304688 106.070312 L 250.605469 113.371094 L 304.878906 59.097656 L 297.542969 51.757812 Z M 243.234375 91.390625 L 235.890625 98.734375 L 223.25 86.089844 C 223.25 86.089844 230.589844 78.753906 230.589844 78.753906 Z M 243.234375 91.390625 "/></g></g></svg>