<svg xmlns="http://www.w3.org/2000/svg" xmlns:xlink="http://www.w3.org/1999/xlink" width="500" zoomAndPan="magnify" viewBox="0 0 375 374.999991" height="500" preserveAspectRatio="xMidYMid meet" version="1.2"><defs><clipPath id="1819b60497"><path d="M 317 161 L 326.21875 161 L 326.21875 244 L 317 244 Z M 317 161 "/></clipPath></defs><g id="6d57af01d8"><path style=" stroke:none;fill-rule:nonzero;fill:#ffde59;fill-opacity:1;" d="M 79.039062 165.714844 C 80.886719 164.976562 81.996094 163.125 81.996094 161.277344 L 81.996094 45.921875 L 99.003906 69.214844 C 100.113281 71.433594 103.070312 72.171875 105.289062 71.0625 C 107.507812 69.957031 108.246094 66.996094 107.136719 64.777344 C 106.769531 64.410156 81.257812 28.914062 81.257812 28.914062 C 80.515625 27.804688 79.039062 27.066406 77.558594 27.066406 C 75.339844 27.066406 74.230469 28.175781 73.863281 28.914062 L 50.199219 66.628906 C 48.71875 68.847656 49.460938 71.433594 51.679688 72.914062 C 52.417969 73.28125 53.15625 73.652344 54.265625 73.652344 C 55.746094 73.652344 57.222656 72.914062 58.332031 71.433594 L 73.121094 47.769531 L 73.121094 149.078125 L 57.964844 130.960938 C 56.484375 129.113281 53.527344 128.742188 51.308594 130.589844 C 50.199219 131.328125 49.828125 132.808594 49.828125 133.917969 L 49.828125 206.382812 C 49.828125 208.972656 52.046875 210.820312 54.265625 210.820312 C 56.484375 210.820312 58.703125 208.601562 58.703125 206.382812 L 58.703125 146.488281 L 73.863281 164.605469 C 75.339844 166.085938 77.558594 166.453125 79.039062 165.714844 Z M 79.039062 165.714844 "/><path style=" stroke:none;fill-rule:nonzero;fill:#ffde59;fill-opacity:1;" d="M 294.589844 159.800781 C 292 159.800781 290.152344 162.015625 290.152344 164.234375 L 290.152344 237.8125 L 274.992188 219.695312 C 273.515625 217.847656 270.558594 217.476562 268.339844 219.324219 C 267.230469 220.066406 266.859375 221.542969 266.859375 222.652344 L 266.859375 327.285156 L 250.222656 301.035156 C 248.742188 298.816406 246.15625 298.078125 243.9375 299.554688 C 241.71875 301.035156 240.980469 303.625 242.457031 305.839844 L 267.597656 345.402344 C 268.339844 346.882812 269.816406 347.621094 271.667969 347.621094 C 273.882812 347.621094 274.992188 346.511719 275.363281 345.773438 L 298.65625 308.058594 C 300.136719 305.839844 299.394531 302.882812 297.175781 301.773438 C 294.960938 300.296875 292 301.035156 290.890625 303.253906 L 276.101562 326.917969 L 276.101562 235.59375 L 291.261719 253.710938 C 292.742188 255.558594 295.699219 255.929688 297.917969 254.078125 C 299.027344 253.339844 299.394531 251.859375 299.394531 250.753906 L 299.394531 164.605469 C 299.394531 162.015625 297.175781 159.800781 294.589844 159.800781 C 294.960938 159.800781 294.589844 159.800781 294.589844 159.800781 Z M 294.589844 159.800781 "/><path style=" stroke:none;fill-rule:nonzero;fill:#ffde59;fill-opacity:1;" d="M 230.996094 273.304688 C 180.34375 300.296875 117.859375 281.070312 90.871094 230.417969 C 90.128906 228.570312 89.019531 227.089844 88.28125 225.242188 C 81.996094 211.5625 78.667969 197.140625 79.039062 181.984375 C 79.039062 179.394531 76.820312 177.546875 74.601562 177.546875 C 72.011719 177.546875 70.164062 179.765625 70.164062 181.984375 C 70.164062 198.25 73.492188 214.148438 80.515625 228.9375 C 106.398438 285.507812 173.320312 310.277344 229.515625 284.398438 C 231.734375 283.289062 233.585938 282.546875 235.800781 281.441406 C 238.019531 280.332031 239.128906 277.742188 238.390625 275.523438 C 237.652344 273.304688 233.585938 271.828125 230.996094 273.304688 Z M 230.996094 273.304688 "/><path style=" stroke:none;fill-rule:nonzero;fill:#ffde59;fill-opacity:1;" d="M 187.738281 222.652344 L 188.476562 222.652344 C 194.761719 222.652344 199.9375 217.476562 199.9375 211.191406 L 199.9375 200.097656 C 199.9375 197.511719 197.351562 194.183594 192.914062 191.226562 L 187.738281 189.007812 Z M 187.738281 222.652344 "/><path style=" stroke:none;fill-rule:nonzero;fill:#ffde59;fill-opacity:1;" d="M 164.074219 152.773438 L 164.074219 163.867188 C 164.074219 167.195312 167.773438 170.519531 170.730469 172.371094 L 178.496094 175.328125 L 178.496094 140.941406 L 175.535156 140.941406 C 169.25 141.3125 164.074219 146.488281 164.074219 152.773438 Z M 164.074219 152.773438 "/><path style=" stroke:none;fill-rule:nonzero;fill:#ffde59;fill-opacity:1;" d="M 182.191406 101.011719 C 137.085938 101.011719 100.851562 137.246094 100.851562 182.351562 C 100.851562 227.460938 137.085938 263.691406 182.191406 263.691406 C 227.300781 263.691406 263.53125 227.460938 263.53125 182.351562 C 263.53125 137.246094 227.300781 101.011719 182.191406 101.011719 Z M 209.550781 157.949219 C 209.550781 160.539062 207.332031 162.386719 205.117188 162.386719 C 202.898438 162.386719 200.679688 160.167969 200.679688 157.949219 L 200.679688 152.773438 C 200.679688 146.488281 195.503906 141.3125 189.21875 141.3125 L 188.476562 141.3125 L 188.476562 179.023438 C 188.476562 179.023438 198.460938 183.09375 198.828125 183.09375 C 206.59375 187.898438 210.292969 193.8125 210.292969 199.730469 L 210.292969 210.820312 C 210.292969 222.28125 201.046875 231.527344 189.585938 231.527344 L 188.847656 231.527344 L 188.847656 241.878906 C 188.847656 244.464844 186.628906 246.316406 184.410156 246.316406 C 182.191406 246.316406 179.972656 244.097656 179.972656 241.878906 L 179.972656 231.527344 L 177.015625 231.527344 C 165.554688 231.527344 156.3125 222.28125 155.941406 210.820312 L 155.941406 205.644531 C 155.941406 203.058594 158.160156 201.207031 160.378906 201.207031 C 162.597656 201.207031 164.816406 203.425781 164.816406 205.644531 L 164.816406 210.820312 C 164.816406 217.105469 169.992188 222.28125 176.644531 222.28125 L 179.605469 222.28125 L 179.605469 185.308594 L 167.035156 180.503906 C 158.53125 175.699219 154.832031 170.152344 154.832031 163.867188 L 154.832031 152.773438 C 154.832031 141.3125 164.074219 132.070312 175.90625 132.070312 L 178.863281 132.070312 L 178.863281 122.457031 C 178.863281 119.867188 181.082031 118.019531 183.300781 118.019531 C 185.519531 118.019531 187.738281 120.238281 187.738281 122.457031 L 187.738281 132.070312 L 188.476562 132.070312 C 199.9375 132.070312 209.183594 141.3125 209.183594 152.773438 L 209.183594 157.949219 Z M 209.550781 157.949219 "/><g clip-rule="nonzero" clip-path="url(#1819b60497)"><path style=" stroke:none;fill-rule:nonzero;fill:#ffde59;fill-opacity:1;" d="M 321.578125 161.277344 C 318.992188 161.277344 317.144531 163.496094 317.144531 165.714844 L 317.144531 238.921875 C 317.144531 241.507812 319.359375 243.359375 321.578125 243.359375 C 323.796875 243.359375 326.015625 241.140625 326.015625 238.921875 L 326.015625 165.714844 C 326.015625 163.125 324.167969 161.277344 321.578125 161.277344 Z M 321.578125 161.277344 "/></g><path style=" stroke:none;fill-rule:nonzero;fill:#ffde59;fill-opacity:1;" d="M 125.253906 109.886719 C 127.84375 109.886719 129.691406 107.667969 129.691406 105.449219 L 129.691406 93.617188 C 178.863281 64.777344 242.089844 80.675781 270.925781 129.851562 C 274.625 136.136719 277.953125 143.160156 280.171875 150.1875 C 280.910156 152.035156 282.386719 153.511719 284.605469 153.511719 C 284.976562 153.511719 285.714844 153.511719 286.085938 153.144531 C 288.671875 152.40625 289.78125 149.816406 289.042969 147.226562 C 269.816406 88.070312 206.222656 55.90625 147.066406 75.5 C 141.152344 77.351562 135.238281 79.9375 129.691406 82.894531 L 129.691406 69.585938 C 129.691406 66.996094 127.472656 65.148438 125.253906 65.148438 C 123.035156 65.148438 120.816406 67.367188 120.816406 69.585938 L 120.816406 105.449219 C 120.816406 107.667969 122.664062 109.886719 125.253906 109.886719 Z M 125.253906 109.886719 "/></g></svg>