<svg xmlns="http://www.w3.org/2000/svg" xmlns:xlink="http://www.w3.org/1999/xlink" width="500" zoomAndPan="magnify" viewBox="0 0 375 374.999991" height="500" preserveAspectRatio="xMidYMid meet" version="1.2"><defs><clipPath id="6506d502bc"><path d="M 28.035156 53.933594 L 224 53.933594 L 224 256 L 28.035156 256 Z M 28.035156 53.933594 "/></clipPath><clipPath id="99a0ac0771"><path d="M 198 199 L 318 199 L 318 320.933594 L 198 320.933594 Z M 198 199 "/></clipPath><clipPath id="8f7b0e6acc"><path d="M 273 84 L 346.785156 84 L 346.785156 162 L 273 162 Z M 273 84 "/></clipPath></defs><g id="ab4dafb0f0"><g clip-rule="nonzero" clip-path="url(#6506d502bc)"><path style=" stroke:none;fill-rule:nonzero;fill:#ffde59;fill-opacity:1;" d="M 132.828125 54.644531 C 133.941406 58.238281 135.113281 61.816406 136.164062 65.433594 C 141.125 82.503906 147.945312 98.734375 157.082031 114.054688 C 164.414062 126.351562 174.121094 135.886719 187.046875 141.898438 C 195.75 145.941406 204.761719 149.328125 213.625 153.035156 C 216.339844 154.171875 219.023438 155.386719 223.519531 157.355469 C 219.785156 159.296875 217.738281 160.601562 215.519531 161.46875 C 202.652344 166.515625 189.5 170.921875 176.910156 176.574219 C 160.5625 183.910156 148.335938 196.132812 140.546875 212.257812 C 135.375 222.960938 131.234375 234.167969 126.679688 245.167969 C 125.550781 247.898438 124.613281 250.710938 122.871094 255.425781 C 120.714844 251.867188 119.101562 250 118.347656 247.839844 C 114.042969 235.496094 109.9375 223.085938 105.765625 210.695312 C 98.570312 189.3125 84.019531 174.730469 63.65625 165.78125 C 54.863281 161.914062 45.769531 158.734375 36.839844 155.179688 C 34.488281 154.246094 32.230469 153.070312 28.03125 151.128906 C 41.257812 146.121094 53.078125 142.792969 63.773438 137.269531 C 74.609375 131.671875 85.480469 125.113281 94.207031 116.753906 C 102.917969 108.410156 109.945312 97.847656 115.949219 87.261719 C 121.871094 76.808594 125.578125 65.097656 130.257812 53.941406 C 131.117188 54.175781 131.972656 54.410156 132.828125 54.644531 Z M 132.828125 54.644531 "/></g><g clip-rule="nonzero" clip-path="url(#99a0ac0771)"><path style=" stroke:none;fill-rule:nonzero;fill:#ffde59;fill-opacity:1;" d="M 198.289062 257.851562 C 228.949219 244.785156 239.496094 247.316406 260.335938 199.820312 C 266.570312 212.554688 272.226562 225.933594 279.46875 238.394531 C 287.296875 251.855469 302.804688 254.746094 317.417969 261.695312 C 302.25 267.300781 288.0625 271.09375 277.121094 281.039062 C 265.871094 291.261719 261.640625 305.515625 255.800781 320.890625 C 254.089844 317.472656 252.839844 315.488281 252.0625 313.335938 C 249.703125 306.832031 247.535156 300.257812 245.28125 293.714844 C 240.582031 280.078125 230.953125 271.191406 217.964844 265.65625 C 212.011719 263.117188 205.929688 260.871094 198.289062 257.851562 Z M 198.289062 257.851562 "/></g><g clip-rule="nonzero" clip-path="url(#8f7b0e6acc)"><path style=" stroke:none;fill-rule:nonzero;fill:#ffde59;fill-opacity:1;" d="M 346.792969 124.3125 C 319.589844 136.75 322.976562 132.132812 308.6875 161.101562 C 304.46875 152.296875 301.871094 142.503906 295.894531 135.660156 C 290.164062 129.101562 280.929688 125.605469 273.632812 121.011719 C 280.789062 116.835938 289.910156 113.296875 296.574219 107.113281 C 303.074219 101.078125 307.054688 92.335938 312.429688 84.351562 C 316.261719 91.933594 319.136719 101.253906 324.945312 108.085938 C 330.640625 114.785156 339.316406 118.953125 346.792969 124.3125 Z M 346.792969 124.3125 "/></g></g></svg>