<svg xmlns="http://www.w3.org/2000/svg" xmlns:xlink="http://www.w3.org/1999/xlink" width="500" zoomAndPan="magnify" viewBox="0 0 375 374.999991" height="500" preserveAspectRatio="xMidYMid meet" version="1.2"><defs><clipPath id="c5b0350cc3"><path d="M 45.199219 31.339844 L 329.449219 31.339844 L 329.449219 343.339844 L 45.199219 343.339844 Z M 45.199219 31.339844 "/></clipPath></defs><g id="1ee943e0f1"><g clip-rule="nonzero" clip-path="url(#c5b0350cc3)"><path style=" stroke:none;fill-rule:evenodd;fill:#ffde59;fill-opacity:1;" d="M 228.417969 304.523438 L 229.492188 316.949219 L 243.640625 316.949219 C 247.226562 316.949219 250.488281 318.414062 252.847656 320.773438 C 255.210938 323.136719 256.675781 326.394531 256.675781 329.984375 L 256.675781 339.84375 C 256.675781 341.597656 255.253906 343.023438 253.496094 343.023438 L 120.800781 343.023438 C 119.042969 343.023438 117.621094 341.597656 117.621094 339.84375 L 117.621094 329.984375 C 117.621094 326.394531 119.085938 323.136719 121.445312 320.773438 C 123.808594 318.414062 127.066406 316.949219 130.65625 316.949219 L 144.808594 316.949219 L 145.882812 304.523438 L 62.789062 304.523438 C 57.90625 304.523438 53.464844 302.527344 50.25 299.3125 C 47.03125 296.09375 45.039062 291.660156 45.039062 286.773438 L 45.039062 142.835938 C 45.039062 137.949219 47.03125 133.511719 50.25 130.296875 C 53.464844 127.082031 57.902344 125.085938 62.789062 125.085938 L 83.898438 125.085938 L 88.914062 120.070312 L 88.917969 120.074219 C 89.875 119.117188 91.378906 118.847656 92.636719 119.511719 L 102.15625 124.523438 C 103.699219 123.648438 105.304688 122.863281 106.960938 122.179688 C 108.59375 121.5 110.277344 120.917969 112.007812 120.441406 L 115.121094 110.40625 C 115.441406 108.992188 116.707031 107.933594 118.21875 107.933594 L 129.28125 107.933594 L 129.28125 107.9375 C 130.636719 107.9375 131.894531 108.816406 132.3125 110.179688 L 135.496094 120.441406 C 137.226562 120.921875 138.914062 121.503906 140.542969 122.179688 C 142.203125 122.863281 143.804688 123.652344 145.351562 124.527344 L 154.675781 119.621094 C 155.898438 118.863281 157.53125 119.015625 158.59375 120.078125 L 163.609375 125.09375 L 311.515625 125.09375 C 316.398438 125.09375 320.835938 127.09375 324.050781 130.304688 C 327.265625 133.523438 329.261719 137.957031 329.261719 142.84375 L 329.261719 286.777344 C 329.261719 291.664062 327.265625 296.097656 324.050781 299.316406 C 320.835938 302.53125 316.394531 304.523438 311.515625 304.523438 Z M 244.148438 210.539062 L 298.0625 210.539062 C 299.816406 210.539062 301.242188 209.117188 301.242188 207.359375 C 301.242188 205.605469 299.816406 204.183594 298.0625 204.183594 L 244.148438 204.183594 C 242.394531 204.183594 240.96875 205.605469 240.96875 207.359375 C 240.96875 209.117188 242.394531 210.539062 244.148438 210.539062 Z M 244.148438 192.9375 L 298.0625 192.9375 C 299.816406 192.9375 301.242188 191.515625 301.242188 189.757812 C 301.242188 188.003906 299.816406 186.582031 298.0625 186.582031 L 244.148438 186.582031 C 242.394531 186.582031 240.96875 188.003906 240.96875 189.757812 C 240.96875 191.515625 242.394531 192.9375 244.148438 192.9375 Z M 244.148438 175.339844 L 298.0625 175.339844 C 299.816406 175.339844 301.242188 173.914062 301.242188 172.160156 C 301.242188 170.40625 299.816406 168.980469 298.0625 168.980469 L 244.148438 168.980469 C 242.394531 168.980469 240.96875 170.40625 240.96875 172.160156 C 240.96875 173.914062 242.394531 175.339844 244.148438 175.339844 Z M 244.148438 157.738281 L 298.0625 157.738281 C 299.816406 157.738281 301.242188 156.316406 301.242188 154.5625 C 301.242188 152.804688 299.816406 151.382812 298.0625 151.382812 L 244.148438 151.382812 C 242.394531 151.382812 240.96875 152.804688 240.96875 154.5625 C 240.96875 156.316406 242.394531 157.738281 244.148438 157.738281 Z M 104.8125 68.277344 C 103.578125 68.277344 102.464844 68.777344 101.65625 69.585938 C 100.851562 70.390625 100.351562 71.507812 100.351562 72.738281 C 100.351562 73.972656 100.851562 75.085938 101.65625 75.894531 C 102.464844 76.699219 103.578125 77.199219 104.8125 77.199219 C 106.042969 77.199219 107.160156 76.699219 107.964844 75.894531 C 108.773438 75.085938 109.269531 73.972656 109.269531 72.738281 C 109.269531 71.507812 108.773438 70.390625 107.964844 69.585938 C 107.160156 68.78125 106.039062 68.277344 104.8125 68.277344 Z M 97.164062 65.09375 C 95.203125 67.050781 93.996094 69.753906 93.996094 72.742188 C 93.996094 75.730469 95.207031 78.433594 97.164062 80.390625 C 98.394531 81.621094 99.921875 82.558594 101.632812 83.082031 L 101.632812 110.863281 C 101.632812 112.621094 103.054688 114.042969 104.8125 114.042969 C 106.566406 114.042969 107.988281 112.621094 107.988281 110.863281 L 107.988281 83.082031 C 109.695312 82.5625 111.226562 81.621094 112.460938 80.390625 C 114.414062 78.433594 115.628906 75.730469 115.628906 72.742188 C 115.628906 69.753906 114.414062 67.050781 112.460938 65.09375 C 110.5 63.132812 107.800781 61.925781 104.8125 61.925781 C 101.824219 61.925781 99.117188 63.132812 97.164062 65.09375 Z M 142.695312 68.277344 C 141.460938 68.277344 140.347656 68.777344 139.539062 69.585938 C 138.734375 70.390625 138.234375 71.507812 138.234375 72.738281 C 138.234375 73.972656 138.734375 75.085938 139.539062 75.894531 C 140.347656 76.699219 141.460938 77.199219 142.695312 77.199219 C 143.925781 77.199219 145.042969 76.699219 145.847656 75.894531 C 146.65625 75.085938 147.152344 73.972656 147.152344 72.738281 C 147.152344 71.507812 146.65625 70.390625 145.847656 69.585938 C 145.042969 68.78125 143.925781 68.277344 142.695312 68.277344 Z M 135.046875 65.09375 C 133.089844 67.050781 131.878906 69.757812 131.878906 72.742188 C 131.878906 75.730469 133.089844 78.433594 135.046875 80.390625 C 136.28125 81.621094 137.808594 82.5625 139.515625 83.082031 L 139.515625 110.863281 C 139.515625 112.621094 140.941406 114.042969 142.695312 114.042969 C 144.449219 114.042969 145.875 112.621094 145.875 110.863281 L 145.875 83.082031 C 147.582031 82.5625 149.109375 81.621094 150.34375 80.390625 C 152.300781 78.433594 153.511719 75.730469 153.511719 72.742188 C 153.511719 69.753906 152.300781 67.050781 150.34375 65.09375 C 148.386719 63.132812 145.683594 61.925781 142.695312 61.925781 C 139.710938 61.925781 137.007812 63.132812 135.046875 65.09375 Z M 123.753906 37.949219 C 122.519531 37.949219 121.40625 38.449219 120.597656 39.253906 C 119.792969 40.0625 119.292969 41.175781 119.292969 42.410156 C 119.292969 43.640625 119.792969 44.757812 120.597656 45.5625 C 121.40625 46.371094 122.519531 46.867188 123.753906 46.867188 C 124.984375 46.867188 126.101562 46.371094 126.90625 45.5625 C 127.714844 44.757812 128.210938 43.640625 128.210938 42.410156 C 128.210938 41.175781 127.714844 40.0625 126.90625 39.253906 C 126.101562 38.449219 124.984375 37.949219 123.753906 37.949219 Z M 116.105469 34.761719 C 118.066406 32.800781 120.769531 31.59375 123.753906 31.59375 C 126.742188 31.59375 129.445312 32.804688 131.402344 34.761719 C 133.359375 36.722656 134.570312 39.421875 134.570312 42.410156 C 134.570312 45.398438 133.359375 48.101562 131.402344 50.058594 C 130.167969 51.289062 128.640625 52.226562 126.929688 52.75 L 126.929688 99.882812 C 126.929688 101.636719 125.507812 103.0625 123.753906 103.0625 C 121.996094 103.0625 120.574219 101.636719 120.574219 99.882812 L 120.574219 52.75 C 118.863281 52.226562 117.335938 51.289062 116.105469 50.058594 C 114.148438 48.101562 112.9375 45.398438 112.9375 42.410156 C 112.9375 39.421875 114.148438 36.71875 116.105469 34.761719 Z M 91.277344 95.09375 L 91.277344 95.011719 L 91.269531 94.847656 L 91.261719 94.769531 L 91.253906 94.6875 L 91.242188 94.609375 L 91.230469 94.535156 L 91.214844 94.457031 L 91.199219 94.382812 L 91.179688 94.304688 L 91.160156 94.230469 L 91.136719 94.152344 L 91.109375 94.078125 L 91.085938 94.003906 L 91.058594 93.929688 L 91.03125 93.859375 L 90.96875 93.71875 L 90.933594 93.652344 L 90.898438 93.582031 L 90.863281 93.515625 L 90.824219 93.449219 L 90.78125 93.382812 L 90.742188 93.320312 L 90.695312 93.257812 L 90.652344 93.195312 L 90.597656 93.132812 L 90.550781 93.074219 L 90.5 93.011719 L 90.398438 92.902344 L 90.34375 92.847656 L 90.285156 92.796875 L 90.230469 92.742188 L 90.171875 92.691406 L 90.113281 92.644531 L 90.054688 92.59375 L 89.992188 92.550781 L 89.929688 92.503906 L 89.804688 92.417969 L 89.738281 92.375 L 89.675781 92.339844 L 89.605469 92.300781 L 89.464844 92.230469 L 89.398438 92.199219 L 89.328125 92.167969 L 89.253906 92.136719 L 89.183594 92.109375 L 88.960938 92.039062 L 88.882812 92.019531 C 88.859375 92.011719 88.832031 92.007812 88.808594 92.003906 L 88.730469 91.984375 C 88.703125 91.980469 88.679688 91.976562 88.652344 91.972656 L 88.574219 91.957031 L 88.492188 91.945312 L 88.335938 91.929688 L 88.171875 91.921875 L 66.1875 91.921875 C 65.660156 90.210938 64.726562 88.6875 63.492188 87.453125 C 61.535156 85.496094 58.832031 84.285156 55.84375 84.285156 C 52.855469 84.285156 50.152344 85.496094 48.195312 87.453125 C 46.242188 89.414062 45.027344 92.117188 45.027344 95.101562 C 45.027344 98.085938 46.242188 100.789062 48.195312 102.75 C 50.152344 104.707031 52.855469 105.917969 55.84375 105.917969 C 58.832031 105.917969 61.535156 104.707031 63.492188 102.75 C 64.726562 101.515625 65.664062 99.988281 66.1875 98.28125 L 84.910156 98.28125 L 84.910156 112.316406 C 84.910156 114.070312 86.332031 115.492188 88.089844 115.492188 C 89.84375 115.492188 91.265625 114.070312 91.265625 112.316406 L 91.265625 95.09375 Z M 59.007812 91.9375 C 59.816406 92.742188 60.3125 93.859375 60.3125 95.089844 C 60.3125 96.324219 59.816406 97.4375 59.007812 98.246094 C 58.203125 99.050781 57.085938 99.550781 55.855469 99.550781 C 54.621094 99.550781 53.507812 99.050781 52.699219 98.246094 C 51.894531 97.4375 51.394531 96.324219 51.394531 95.089844 C 51.394531 93.859375 51.894531 92.742188 52.699219 91.9375 C 53.507812 91.128906 54.621094 90.632812 55.855469 90.632812 C 57.085938 90.632812 58.203125 91.128906 59.007812 91.9375 Z M 156.230469 95.09375 L 156.230469 112.308594 C 156.230469 114.0625 157.652344 115.488281 159.40625 115.488281 C 161.164062 115.488281 162.585938 114.0625 162.585938 112.308594 L 162.585938 98.273438 L 181.308594 98.273438 C 181.835938 99.980469 182.769531 101.511719 184.003906 102.742188 C 185.960938 104.699219 188.667969 105.910156 191.652344 105.910156 C 194.636719 105.910156 197.34375 104.699219 199.300781 102.742188 C 201.253906 100.78125 202.46875 98.078125 202.46875 95.09375 C 202.46875 92.105469 201.253906 89.402344 199.300781 87.445312 C 197.339844 85.488281 194.636719 84.277344 191.652344 84.277344 C 188.664062 84.277344 185.960938 85.488281 184.003906 87.445312 C 182.769531 88.679688 181.835938 90.207031 181.308594 91.914062 L 159.324219 91.914062 L 159.246094 91.917969 C 159.214844 91.917969 159.1875 91.921875 159.164062 91.921875 L 159.085938 91.929688 L 159.003906 91.941406 L 158.925781 91.949219 L 158.847656 91.964844 L 158.769531 91.976562 L 158.695312 91.996094 L 158.617188 92.011719 L 158.542969 92.035156 L 158.464844 92.054688 L 158.394531 92.078125 L 158.320312 92.101562 L 158.246094 92.128906 L 158.035156 92.222656 L 157.96875 92.257812 L 157.898438 92.292969 L 157.699219 92.410156 L 157.574219 92.496094 L 157.511719 92.542969 L 157.449219 92.585938 L 157.390625 92.636719 L 157.332031 92.683594 L 157.277344 92.738281 L 157.167969 92.839844 L 157.113281 92.894531 L 156.960938 93.070312 L 156.90625 93.132812 L 156.863281 93.191406 L 156.816406 93.253906 L 156.6875 93.441406 L 156.652344 93.507812 L 156.613281 93.574219 L 156.578125 93.644531 L 156.542969 93.710938 L 156.507812 93.78125 L 156.476562 93.851562 L 156.449219 93.925781 L 156.421875 93.996094 L 156.375 94.144531 L 156.351562 94.222656 L 156.328125 94.296875 L 156.3125 94.375 L 156.292969 94.449219 L 156.28125 94.527344 L 156.265625 94.601562 L 156.257812 94.683594 L 156.246094 94.761719 L 156.238281 94.839844 L 156.230469 95.003906 Z M 191.652344 90.632812 C 192.882812 90.632812 194 91.128906 194.804688 91.9375 C 195.613281 92.742188 196.109375 93.859375 196.109375 95.089844 C 196.109375 96.324219 195.613281 97.4375 194.804688 98.246094 C 194 99.050781 192.882812 99.550781 191.652344 99.550781 C 190.417969 99.550781 189.304688 99.050781 188.496094 98.246094 C 187.691406 97.4375 187.191406 96.324219 187.191406 95.089844 C 187.191406 93.859375 187.691406 92.742188 188.496094 91.9375 C 189.304688 91.128906 190.417969 90.632812 191.652344 90.632812 Z M 140.484375 162.734375 C 140.484375 158.113281 138.613281 153.929688 135.585938 150.90625 C 132.558594 147.875 128.375 146.007812 123.753906 146.007812 C 119.132812 146.007812 114.949219 147.878906 111.921875 150.90625 C 108.894531 153.929688 107.019531 158.117188 107.019531 162.734375 C 107.019531 167.359375 108.894531 171.539062 111.921875 174.570312 C 114.953125 177.597656 119.132812 179.46875 123.753906 179.46875 C 128.375 179.46875 132.558594 177.597656 135.585938 174.570312 C 138.613281 171.539062 140.484375 167.359375 140.484375 162.734375 Z M 140.078125 146.410156 C 135.898438 142.234375 130.125 139.648438 123.753906 139.648438 C 117.378906 139.648438 111.605469 142.234375 107.429688 146.410156 C 103.25 150.589844 100.667969 156.363281 100.667969 162.734375 C 100.667969 169.109375 103.25 174.886719 107.429688 179.0625 C 111.605469 183.238281 117.378906 185.824219 123.753906 185.824219 C 130.125 185.824219 135.902344 183.238281 140.078125 179.0625 C 144.257812 174.882812 146.839844 169.109375 146.839844 162.734375 C 146.84375 156.363281 144.257812 150.589844 140.078125 146.410156 Z M 87.476562 130.492188 L 87.4375 130.527344 L 87.230469 130.734375 L 91.976562 139.75 C 92.519531 140.78125 92.4375 141.976562 91.863281 142.902344 C 90.78125 144.636719 89.839844 146.464844 89.046875 148.367188 C 88.269531 150.246094 87.636719 152.191406 87.175781 154.191406 C 86.90625 155.375 86 156.25 84.90625 156.546875 L 75.300781 159.527344 L 75.300781 165.925781 L 85.015625 168.941406 C 86.140625 169.28125 86.933594 170.195312 87.175781 171.261719 C 87.640625 173.265625 88.269531 175.210938 89.046875 177.085938 C 89.835938 178.992188 90.78125 180.820312 91.863281 182.554688 C 92.503906 183.582031 92.480469 184.832031 91.917969 185.816406 L 87.226562 194.726562 L 91.746094 199.25 L 100.765625 194.503906 C 101.796875 193.957031 102.988281 194.042969 103.914062 194.617188 C 105.652344 195.695312 107.476562 196.636719 109.382812 197.429688 C 111.261719 198.210938 113.207031 198.835938 115.207031 199.304688 C 116.390625 199.574219 117.269531 200.472656 117.5625 201.570312 L 120.542969 211.183594 L 126.941406 211.183594 L 129.957031 201.464844 C 130.304688 200.34375 131.214844 199.554688 132.28125 199.308594 C 134.28125 198.839844 136.226562 198.214844 138.105469 197.433594 C 140.007812 196.644531 141.835938 195.699219 143.570312 194.621094 C 144.597656 193.980469 145.847656 194 146.832031 194.566406 L 155.742188 199.253906 L 160.265625 194.734375 L 155.523438 185.714844 C 154.980469 184.683594 155.0625 183.488281 155.636719 182.5625 C 156.71875 180.828125 157.660156 179 158.449219 177.09375 C 159.226562 175.21875 159.855469 173.273438 160.320312 171.269531 C 160.589844 170.085938 161.496094 169.210938 162.589844 168.917969 L 172.195312 165.933594 L 172.195312 159.535156 L 162.476562 156.519531 C 161.355469 156.179688 160.566406 155.265625 160.320312 154.199219 C 159.855469 152.195312 159.226562 150.253906 158.449219 148.378906 C 157.660156 146.472656 156.714844 144.644531 155.632812 142.910156 C 154.996094 141.882812 155.011719 140.632812 155.578125 139.648438 L 160.265625 130.738281 L 160.070312 130.539062 L 160.011719 130.484375 L 155.742188 126.214844 L 146.726562 130.964844 C 145.691406 131.507812 144.5 131.421875 143.574219 130.847656 C 141.839844 129.769531 140.007812 128.828125 138.105469 128.039062 C 136.226562 127.257812 134.28125 126.632812 132.28125 126.164062 C 131.097656 125.894531 130.21875 124.992188 129.925781 123.898438 L 126.945312 114.285156 L 120.546875 114.285156 L 117.53125 124.003906 C 117.183594 125.125 116.273438 125.914062 115.207031 126.160156 C 113.207031 126.628906 111.261719 127.253906 109.382812 128.035156 C 107.480469 128.824219 105.652344 129.769531 103.917969 130.847656 C 102.890625 131.488281 101.636719 131.46875 100.65625 130.902344 L 91.746094 126.214844 Z M 80.4375 131.441406 L 62.785156 131.441406 C 59.65625 131.441406 56.808594 132.726562 54.742188 134.789062 C 52.675781 136.855469 51.394531 139.703125 51.394531 142.835938 L 51.394531 271.402344 L 322.90625 271.402344 L 322.90625 142.835938 C 322.90625 139.707031 321.625 136.855469 319.558594 134.792969 C 317.492188 132.726562 314.644531 131.441406 311.515625 131.441406 L 167.0625 131.441406 C 167.035156 131.5 167.007812 131.558594 166.976562 131.617188 L 161.964844 141.136719 C 162.839844 142.679688 163.628906 144.285156 164.3125 145.941406 C 164.988281 147.570312 165.570312 149.257812 166.050781 150.988281 L 176.082031 154.101562 C 177.496094 154.417969 178.558594 155.6875 178.558594 157.199219 L 178.558594 168.261719 L 178.550781 168.261719 C 178.550781 169.617188 177.675781 170.871094 176.308594 171.292969 L 167.398438 174.058594 L 166.050781 174.476562 C 165.570312 176.207031 164.988281 177.894531 164.3125 179.523438 C 163.625 181.183594 162.839844 182.785156 161.964844 184.332031 L 166.871094 193.652344 C 167.628906 194.878906 167.480469 196.511719 166.414062 197.574219 L 158.589844 205.398438 L 158.585938 205.394531 C 157.632812 206.351562 156.125 206.621094 154.867188 205.957031 L 145.351562 200.949219 C 143.804688 201.824219 142.199219 202.605469 140.542969 203.296875 C 138.914062 203.972656 137.226562 204.554688 135.496094 205.035156 L 132.382812 215.066406 C 132.0625 216.484375 130.796875 217.542969 129.28125 217.542969 L 118.21875 217.542969 L 118.21875 217.53125 C 116.867188 217.53125 115.609375 216.65625 115.191406 215.292969 L 112.003906 205.03125 C 110.273438 204.550781 108.589844 203.96875 106.957031 203.292969 C 105.300781 202.605469 103.695312 201.820312 102.152344 200.945312 L 92.828125 205.855469 C 91.601562 206.613281 89.972656 206.460938 88.910156 205.398438 L 81.085938 197.574219 L 81.085938 197.570312 C 80.132812 196.613281 79.863281 195.113281 80.523438 193.851562 L 85.535156 184.332031 C 84.65625 182.789062 83.875 181.183594 83.1875 179.527344 C 82.511719 177.898438 81.929688 176.210938 81.449219 174.480469 L 71.414062 171.367188 C 70 171.050781 68.9375 169.78125 68.9375 168.269531 L 68.9375 157.207031 L 68.945312 157.207031 C 68.945312 155.851562 69.820312 154.597656 71.183594 154.175781 L 81.445312 150.992188 C 81.925781 149.261719 82.507812 147.574219 83.183594 145.945312 C 83.867188 144.285156 84.652344 142.683594 85.53125 141.136719 L 80.621094 131.816406 C 80.558594 131.695312 80.492188 131.570312 80.4375 131.441406 Z M 255.042969 231.328125 L 230.816406 231.328125 C 230 231.328125 229.199219 231.507812 228.523438 231.816406 C 227.535156 232.273438 226.765625 233.035156 226.371094 234.03125 L 219.589844 251 L 200.40625 200.757812 C 200.0625 199.855469 199.378906 199.164062 198.5 198.753906 C 197.960938 198.503906 197.328125 198.359375 196.683594 198.359375 C 196.035156 198.359375 195.402344 198.503906 194.863281 198.753906 C 194.03125 199.140625 193.375 199.800781 193.011719 200.65625 L 176.445312 239.757812 L 163.894531 223.867188 C 163.449219 223.304688 162.855469 222.898438 162.195312 222.667969 L 162.195312 222.664062 C 161.726562 222.496094 161.21875 222.414062 160.722656 222.414062 C 160.234375 222.414062 159.734375 222.5 159.269531 222.664062 C 158.605469 222.894531 158.023438 223.289062 157.578125 223.835938 L 150.898438 232.035156 L 129.253906 232.035156 C 127.507812 232.035156 126.089844 233.453125 126.089844 235.203125 C 126.089844 236.953125 127.507812 238.367188 129.253906 238.367188 L 151.425781 238.367188 L 151.425781 238.378906 C 152.074219 238.378906 152.722656 238.273438 153.308594 238.0625 C 154.070312 237.792969 154.746094 237.34375 155.257812 236.71875 L 160.703125 230.039062 L 173.886719 246.730469 C 174.378906 247.351562 175.042969 247.78125 175.765625 248 C 176.269531 248.152344 176.835938 248.214844 177.394531 248.171875 C 177.796875 248.140625 178.191406 248.050781 178.558594 247.910156 C 178.734375 247.855469 178.898438 247.78125 179.066406 247.695312 C 179.816406 247.292969 180.398438 246.679688 180.726562 245.894531 L 180.722656 245.890625 L 196.566406 208.5 L 215.816406 258.90625 C 216.160156 259.804688 216.839844 260.488281 217.710938 260.898438 C 218.246094 261.148438 218.882812 261.292969 219.535156 261.296875 C 220.175781 261.296875 220.804688 261.15625 221.335938 260.914062 C 222.203125 260.515625 222.878906 259.84375 223.238281 258.960938 L 223.234375 258.957031 L 231.734375 237.679688 L 255.046875 237.679688 C 256.804688 237.679688 258.226562 236.257812 258.226562 234.5 C 258.21875 232.75 256.796875 231.328125 255.042969 231.328125 Z M 151.425781 232.03125 L 151.425781 232.027344 L 151.402344 232.03125 Z M 172.96875 290.949219 L 201.335938 290.949219 C 203.089844 290.949219 204.511719 289.527344 204.511719 287.769531 C 204.511719 286.015625 203.089844 284.59375 201.335938 284.59375 L 172.96875 284.59375 C 171.214844 284.59375 169.789062 286.015625 169.789062 287.769531 C 169.789062 289.527344 171.214844 290.949219 172.96875 290.949219 Z M 243.640625 323.300781 L 130.65625 323.300781 C 128.820312 323.300781 127.152344 324.050781 125.941406 325.265625 C 124.730469 326.476562 123.976562 328.144531 123.976562 329.980469 L 123.976562 336.660156 L 250.320312 336.660156 L 250.320312 329.980469 C 250.320312 328.148438 249.570312 326.476562 248.359375 325.265625 C 247.144531 324.050781 245.476562 323.300781 243.640625 323.300781 Z M 51.390625 277.753906 L 51.390625 286.769531 C 51.390625 289.902344 52.671875 292.75 54.738281 294.8125 C 56.808594 296.878906 59.652344 298.160156 62.78125 298.160156 L 311.515625 298.160156 C 314.644531 298.160156 317.492188 296.878906 319.558594 294.8125 C 321.625 292.746094 322.90625 289.902344 322.90625 286.769531 L 322.90625 277.753906 Z M 223.117188 316.945312 L 222.039062 304.519531 L 152.261719 304.519531 L 151.183594 316.945312 Z M 223.117188 316.945312 "/></g></g></svg>