<svg xmlns="http://www.w3.org/2000/svg" xmlns:xlink="http://www.w3.org/1999/xlink" width="500" zoomAndPan="magnify" viewBox="0 0 375 374.999991" height="500" preserveAspectRatio="xMidYMid meet" version="1.2"><defs><clipPath id="5738cc30ce"><path d="M 187.5 0 C 83.945312 0 0 83.945312 0 187.5 C 0 291.054688 83.945312 375 187.5 375 C 291.054688 375 375 291.054688 375 187.5 C 375 83.945312 291.054688 0 187.5 0 Z M 187.5 0 "/></clipPath></defs><g id="36551d1ce3"><g clip-rule="nonzero" clip-path="url(#5738cc30ce)"><rect x="0" width="375" y="0" height="374.999991" style="fill:#ffde59;fill-opacity:1;stroke:none;"/></g><path style=" stroke:none;fill-rule:nonzero;fill:#10c03e;fill-opacity:1;" d="M 375.027344 187.527344 C 375.027344 190.59375 374.953125 193.664062 374.800781 196.726562 C 374.652344 199.792969 374.425781 202.851562 374.125 205.90625 C 373.824219 208.960938 373.449219 212.003906 373 215.039062 C 372.546875 218.074219 372.023438 221.097656 371.425781 224.105469 C 370.824219 227.117188 370.152344 230.109375 369.410156 233.085938 C 368.664062 236.0625 367.84375 239.019531 366.953125 241.957031 C 366.0625 244.890625 365.101562 247.804688 364.066406 250.695312 C 363.03125 253.582031 361.929688 256.445312 360.753906 259.28125 C 359.582031 262.117188 358.335938 264.917969 357.023438 267.695312 C 355.714844 270.46875 354.335938 273.207031 352.886719 275.914062 C 351.441406 278.621094 349.929688 281.289062 348.351562 283.921875 C 346.773438 286.554688 345.132812 289.144531 343.429688 291.695312 C 341.722656 294.25 339.957031 296.757812 338.128906 299.222656 C 336.300781 301.6875 334.414062 304.105469 332.464844 306.476562 C 330.519531 308.847656 328.515625 311.171875 326.457031 313.445312 C 324.394531 315.71875 322.28125 317.941406 320.109375 320.109375 C 317.941406 322.28125 315.71875 324.394531 313.445312 326.457031 C 311.171875 328.515625 308.847656 330.519531 306.476562 332.46875 C 304.105469 334.414062 301.6875 336.300781 299.222656 338.128906 C 296.757812 339.957031 294.25 341.722656 291.695312 343.429688 C 289.144531 345.132812 286.554688 346.773438 283.921875 348.351562 C 281.289062 349.929688 278.621094 351.441406 275.914062 352.886719 C 273.207031 354.335938 270.46875 355.714844 267.695312 357.023438 C 264.917969 358.335938 262.117188 359.582031 259.28125 360.753906 C 256.445312 361.929688 253.582031 363.03125 250.695312 364.066406 C 247.804688 365.101562 244.890625 366.0625 241.957031 366.953125 C 239.019531 367.84375 236.0625 368.664062 233.085938 369.410156 C 230.109375 370.152344 227.117188 370.824219 224.105469 371.425781 C 221.097656 372.023438 218.074219 372.546875 215.039062 372.996094 C 212.003906 373.449219 208.960938 373.824219 205.90625 374.125 C 202.851562 374.425781 199.792969 374.652344 196.726562 374.800781 C 193.664062 374.953125 190.59375 375.027344 187.527344 375.027344 C 184.457031 375.027344 181.390625 374.953125 178.328125 374.800781 C 175.261719 374.652344 172.203125 374.425781 169.148438 374.125 C 166.09375 373.824219 163.050781 373.449219 160.015625 373 C 156.980469 372.546875 153.957031 372.023438 150.949219 371.425781 C 147.9375 370.824219 144.945312 370.152344 141.96875 369.410156 C 138.992188 368.664062 136.035156 367.84375 133.097656 366.953125 C 130.160156 366.0625 127.25 365.101562 124.359375 364.066406 C 121.46875 363.03125 118.609375 361.929688 115.773438 360.753906 C 112.9375 359.582031 110.132812 358.335938 107.359375 357.023438 C 104.585938 355.714844 101.847656 354.335938 99.140625 352.886719 C 96.433594 351.441406 93.765625 349.929688 91.132812 348.351562 C 88.5 346.773438 85.910156 345.132812 83.355469 343.429688 C 80.804688 341.722656 78.296875 339.957031 75.832031 338.128906 C 73.367188 336.300781 70.949219 334.414062 68.578125 332.464844 C 66.207031 330.519531 63.882812 328.515625 61.609375 326.457031 C 59.335938 324.394531 57.113281 322.28125 54.945312 320.109375 C 52.773438 317.941406 50.660156 315.71875 48.597656 313.445312 C 46.539062 311.171875 44.535156 308.847656 42.585938 306.476562 C 40.640625 304.105469 38.753906 301.6875 36.925781 299.222656 C 35.097656 296.757812 33.332031 294.25 31.625 291.695312 C 29.921875 289.144531 28.28125 286.554688 26.703125 283.921875 C 25.125 281.289062 23.613281 278.621094 22.167969 275.914062 C 20.71875 273.207031 19.339844 270.46875 18.027344 267.695312 C 16.714844 264.917969 15.472656 262.117188 14.300781 259.28125 C 13.125 256.445312 12.019531 253.582031 10.988281 250.695312 C 9.953125 247.804688 8.992188 244.890625 8.101562 241.957031 C 7.210938 239.019531 6.390625 236.0625 5.644531 233.085938 C 4.898438 230.109375 4.226562 227.117188 3.628906 224.105469 C 3.03125 221.097656 2.507812 218.074219 2.054688 215.039062 C 1.605469 212.003906 1.230469 208.960938 0.929688 205.90625 C 0.628906 202.851562 0.402344 199.792969 0.253906 196.726562 C 0.101562 193.664062 0.0273438 190.59375 0.0273438 187.527344 C 0.0273438 184.457031 0.101562 181.390625 0.253906 178.328125 C 0.402344 175.261719 0.628906 172.203125 0.929688 169.148438 C 1.230469 166.09375 1.605469 163.050781 2.054688 160.015625 C 2.507812 156.980469 3.03125 153.957031 3.628906 150.949219 C 4.226562 147.9375 4.898438 144.945312 5.644531 141.96875 C 6.390625 138.992188 7.210938 136.035156 8.101562 133.097656 C 8.992188 130.160156 9.953125 127.25 10.988281 124.359375 C 12.019531 121.46875 13.125 118.609375 14.300781 115.773438 C 15.472656 112.9375 16.714844 110.132812 18.027344 107.359375 C 19.339844 104.585938 20.71875 101.847656 22.167969 99.140625 C 23.613281 96.433594 25.125 93.765625 26.703125 91.132812 C 28.28125 88.5 29.921875 85.910156 31.625 83.355469 C 33.332031 80.804688 35.097656 78.296875 36.925781 75.832031 C 38.753906 73.367188 40.640625 70.949219 42.585938 68.578125 C 44.535156 66.207031 46.539062 63.882812 48.597656 61.609375 C 50.660156 59.335938 52.773438 57.113281 54.945312 54.945312 C 57.113281 52.773438 59.335938 50.660156 61.609375 48.597656 C 63.882812 46.539062 66.207031 44.535156 68.578125 42.585938 C 70.949219 40.640625 73.367188 38.753906 75.832031 36.925781 C 78.296875 35.097656 80.804688 33.332031 83.355469 31.625 C 85.910156 29.921875 88.5 28.28125 91.132812 26.703125 C 93.765625 25.125 96.433594 23.613281 99.140625 22.167969 C 101.847656 20.71875 104.585938 19.339844 107.359375 18.027344 C 110.132812 16.714844 112.9375 15.472656 115.773438 14.300781 C 118.609375 13.125 121.46875 12.019531 124.359375 10.988281 C 127.25 9.953125 130.160156 8.992188 133.097656 8.101562 C 136.035156 7.210938 138.992188 6.390625 141.96875 5.644531 C 144.945312 4.898438 147.9375 4.226562 150.949219 3.628906 C 153.957031 3.03125 156.980469 2.507812 160.015625 2.054688 C 163.050781 1.605469 166.09375 1.230469 169.148438 0.929688 C 172.203125 0.628906 175.261719 0.402344 178.328125 0.253906 C 181.390625 0.101562 184.457031 0.0273438 187.527344 0.0273438 C 190.59375 0.0273438 193.664062 0.101562 196.726562 0.253906 C 199.792969 0.402344 202.851562 0.628906 205.90625 0.929688 C 208.960938 1.230469 212.003906 1.605469 215.039062 2.054688 C 218.074219 2.507812 221.097656 3.03125 224.105469 3.628906 C 227.117188 4.226562 230.109375 4.898438 233.085938 5.644531 C 236.0625 6.390625 239.019531 7.210938 241.957031 8.101562 C 244.890625 8.992188 247.804688 9.953125 250.695312 10.988281 C 253.582031 12.019531 256.445312 13.125 259.28125 14.300781 C 262.117188 15.472656 264.917969 16.714844 267.695312 18.027344 C 270.46875 19.339844 273.207031 20.71875 275.914062 22.167969 C 278.621094 23.613281 281.289062 25.125 283.921875 26.703125 C 286.554688 28.28125 289.144531 29.921875 291.695312 31.625 C 294.25 33.332031 296.757812 35.097656 299.222656 36.925781 C 301.6875 38.753906 304.105469 40.640625 306.476562 42.585938 C 308.847656 44.535156 311.171875 46.539062 313.445312 48.597656 C 315.71875 50.660156 317.941406 52.773438 320.109375 54.945312 C 322.28125 57.113281 324.394531 59.335938 326.457031 61.609375 C 328.515625 63.882812 330.519531 66.207031 332.46875 68.578125 C 334.414062 70.949219 336.300781 73.367188 338.128906 75.832031 C 339.957031 78.296875 341.722656 80.804688 343.429688 83.355469 C 345.132812 85.910156 346.773438 88.5 348.351562 91.132812 C 349.929688 93.765625 351.441406 96.433594 352.886719 99.140625 C 354.335938 101.847656 355.714844 104.585938 357.023438 107.359375 C 358.335938 110.132812 359.582031 112.9375 360.753906 115.773438 C 361.929688 118.609375 363.03125 121.46875 364.066406 124.359375 C 365.101562 127.25 366.0625 130.160156 366.953125 133.097656 C 367.84375 136.035156 368.664062 138.992188 369.410156 141.96875 C 370.152344 144.945312 370.824219 147.9375 371.425781 150.949219 C 372.023438 153.957031 372.546875 156.980469 372.996094 160.015625 C 373.449219 163.050781 373.824219 166.09375 374.125 169.148438 C 374.425781 172.203125 374.652344 175.261719 374.800781 178.328125 C 374.953125 181.390625 375.027344 184.457031 375.027344 187.527344 Z M 375.027344 187.527344 "/><path style=" stroke:none;fill-rule:nonzero;fill:#ffffff;fill-opacity:1;" d="M 276.890625 257.695312 L 278.851562 247.070312 C 281.273438 233.925781 272.230469 221.421875 258.992188 219.609375 L 236.054688 216.46875 C 226.230469 215.121094 216.621094 220.109375 212.066406 228.917969 C 208.882812 235.074219 201.761719 238.101562 195.128906 236.097656 C 166.367188 227.410156 147.644531 208.683594 138.953125 179.925781 C 136.949219 173.292969 139.980469 166.171875 146.136719 162.984375 C 154.945312 158.429688 159.929688 148.824219 158.585938 138.996094 L 155.445312 116.0625 C 153.632812 102.824219 141.128906 93.777344 127.984375 96.203125 L 117.359375 98.160156 C 104.871094 100.464844 95.808594 111.351562 95.808594 124.046875 L 95.808594 135.433594 C 95.808594 160.398438 102.15625 185 114.53125 206.679688 C 114.945312 207.40625 115.367188 208.128906 115.792969 208.847656 C 141.683594 252.691406 189.152344 279.246094 240.070312 279.246094 L 251.007812 279.246094 C 263.703125 279.246094 274.589844 270.183594 276.890625 257.695312 Z M 276.890625 257.695312 "/></g></svg>